<?xml version="1.0" encoding="UTF-8"?>
<svg id="Layer_1" data-name="Layer 1" xmlns="http://www.w3.org/2000/svg" viewBox="0 0 1652.1 1303.86">
  <defs>
    <style>
      .cls-1 {
        fill: #fff;
      }
    </style>
  </defs>
  <path class="cls-1" d="M1010,1279.45c-30.8,0-62.09-1.5-93.83-4.51-103.87-9.84-207.98-35.46-309.46-76.17-101.48-40.7-194.45-94.13-276.32-158.79-79.65-62.91-145.61-133.84-196.06-210.84-51.29-78.28-84.07-159.04-97.43-240.04-14.14-85.74-5.84-167.77,24.66-243.82,30.5-76.05,81.19-141.07,150.66-193.28,65.62-49.32,145.12-85.04,236.29-106.18,89.67-20.79,186.37-26.48,287.41-16.92,103.87,9.84,207.98,35.46,309.47,76.17s194.45,94.13,276.32,158.79c79.65,62.91,145.61,133.84,196.06,210.84,51.29,78.28,84.07,159.04,97.42,240.04,14.14,85.74,5.84,167.77-24.66,243.82l-44.09-17.68,44.09,17.68c-30.5,76.05-81.19,141.07-150.66,193.28-65.62,49.32-145.12,85.04-236.3,106.18-61.51,14.26-126.33,21.42-193.59,21.42ZM643.12,119.26c-59.86,0-118.01,6.32-173.14,19.11-158.59,36.77-272.32,122.82-320.24,242.29-47.92,119.47-25.17,260.25,64.05,396.42,92.7,141.48,244.8,259.93,428.29,333.52,183.49,73.6,375.28,93.09,540.05,54.88,158.59-36.77,272.32-122.82,320.24-242.29s25.17-260.25-64.05-396.42c-92.7-141.48-244.8-259.93-428.29-333.52-122.09-48.97-247.87-73.99-366.91-73.99Z"/>
  <g>
    <path d="M895.18,91.21c-.53-2.18-1.57-3.99-3.11-5.41-1.54-1.42-3.49-2.42-5.84-3-2.57-.63-5-.61-7.29.05s-4.27,1.91-5.92,3.76c-1.66,1.84-2.83,4.16-3.51,6.95-.68,2.79-.72,5.4-.11,7.82.61,2.42,1.78,4.45,3.51,6.1,1.73,1.65,3.88,2.79,6.45,3.42,3.46.85,6.51.57,9.14-.84,2.63-1.41,4.6-3.71,5.89-6.9l-14.58-3.57,1.25-5.08,21.39,5.24-1.22,4.97c-1.15,2.92-2.9,5.43-5.25,7.53-2.35,2.11-5.1,3.58-8.24,4.4-3.14.83-6.41.83-9.8,0-3.65-.89-6.77-2.56-9.37-4.99-2.6-2.43-4.42-5.37-5.45-8.82-1.03-3.45-1.08-7.07-.15-10.87.93-3.8,2.65-6.99,5.16-9.57,2.51-2.58,5.49-4.35,8.94-5.3,3.45-.95,6.98-.98,10.59-.1,4.13,1.01,7.56,2.93,10.28,5.75,2.72,2.82,4.35,6.27,4.89,10.35l-7.65-1.87Z"/>
    <path d="M911.34,122.72c-2.52-2.55-4.21-5.57-5.09-9.08-.88-3.51-.77-7.14.32-10.89,1.09-3.75,2.94-6.87,5.55-9.34,2.61-2.47,5.66-4.11,9.15-4.92,3.49-.8,7.02-.69,10.59.35,3.61,1.05,6.67,2.84,9.18,5.39,2.51,2.55,4.2,5.56,5.07,9.04s.75,7.1-.34,10.86c-1.09,3.76-2.93,6.88-5.54,9.38-2.6,2.5-5.65,4.15-9.13,4.95-3.49.8-7.03.68-10.64-.36-3.57-1.04-6.61-2.83-9.13-5.37ZM929.35,122.86c2.33-.58,4.36-1.79,6.11-3.62,1.75-1.83,3.03-4.16,3.86-6.99.82-2.83.98-5.48.48-7.94-.5-2.46-1.58-4.55-3.24-6.27-1.66-1.72-3.76-2.95-6.3-3.68s-4.97-.82-7.29-.26-4.35,1.75-6.09,3.56c-1.74,1.81-3.02,4.13-3.85,6.97-.82,2.83-.99,5.49-.49,7.97s1.57,4.59,3.22,6.32,3.75,2.97,6.29,3.71c2.54.74,4.97.81,7.3.23Z"/>
    <path d="M996.72,122.53c-.32-2.22-1.18-4.12-2.58-5.69-1.4-1.57-3.24-2.75-5.52-3.55-2.5-.88-4.92-1.09-7.26-.66-2.35.44-4.43,1.49-6.26,3.17-1.83,1.67-3.21,3.87-4.17,6.58-.95,2.71-1.24,5.3-.87,7.77.37,2.47,1.34,4.6,2.9,6.41,1.56,1.81,3.59,3.15,6.08,4.02,3.36,1.18,6.42,1.2,9.18.05,2.76-1.15,4.94-3.25,6.54-6.3l-14.16-4.97,1.73-4.94,20.78,7.29-1.69,4.83c-1.43,2.79-3.41,5.12-5.96,6.99-2.54,1.87-5.42,3.06-8.63,3.58-3.21.52-6.46.2-9.75-.95-3.54-1.24-6.49-3.2-8.85-5.88-2.35-2.67-3.88-5.78-4.56-9.31-.69-3.53-.39-7.14.91-10.83s3.31-6.7,6.06-9.03c2.75-2.33,5.88-3.8,9.41-4.41,3.52-.61,7.04-.3,10.55.93,4.02,1.41,7.24,3.65,9.68,6.72,2.44,3.07,3.73,6.66,3.87,10.77l-7.43-2.61Z"/>
    <path d="M1009.76,155.52c-2.28-2.76-3.71-5.92-4.27-9.49s-.14-7.18,1.27-10.82c1.41-3.65,3.53-6.59,6.35-8.82,2.82-2.24,6-3.6,9.55-4.1,3.54-.5,7.05-.07,10.52,1.27,3.5,1.36,6.39,3.42,8.68,6.17,2.28,2.76,3.7,5.91,4.26,9.45.56,3.55.13,7.14-1.29,10.79-1.41,3.65-3.53,6.6-6.34,8.86-2.81,2.26-5.99,3.64-9.53,4.13-3.54.5-7.07.06-10.57-1.29-3.47-1.35-6.34-3.4-8.62-6.15ZM1027.69,157.24c2.37-.38,4.5-1.4,6.4-3.07,1.9-1.67,3.39-3.88,4.45-6.63,1.07-2.75,1.46-5.38,1.17-7.87-.29-2.5-1.18-4.67-2.68-6.53s-3.48-3.26-5.95-4.22c-2.47-.96-4.88-1.25-7.24-.9-2.36.36-4.49,1.36-6.38,3.01-1.9,1.65-3.38,3.85-4.44,6.6-1.07,2.75-1.46,5.38-1.18,7.9.28,2.51,1.17,4.71,2.66,6.58,1.49,1.88,3.47,3.29,5.94,4.25,2.47.96,4.88,1.25,7.25.87Z"/>
    <path d="M1051.16,169.09l12.39,5.38-2.11,4.85-18.41-7.99,15.91-36.66,6.01,2.61-13.81,31.8Z"/>
    <path d="M1104.38,155.14l-2.25,4.85-15.39-7.14-4.96,10.69,12,5.57-2.25,4.85-12-5.57-7.36,15.85-5.95-2.76,16.83-36.25,21.33,9.9Z"/>
    <path d="M1106.14,199.69c-.35-1.08-.26-2.15.27-3.21.54-1.06,1.35-1.77,2.43-2.12,1.08-.35,2.15-.26,3.21.27,1.03.52,1.72,1.32,2.07,2.4.36,1.08.26,2.15-.27,3.21-.54,1.06-1.34,1.77-2.43,2.12s-2.14.27-3.16-.25c-1.06-.54-1.77-1.35-2.12-2.43Z"/>
    <path d="M1170.52,202.81c.07-2.25-.45-4.26-1.56-6.04-1.11-1.78-2.72-3.27-4.83-4.44-2.31-1.29-4.66-1.92-7.04-1.89-2.39.03-4.62.71-6.71,2.05-2.09,1.34-3.83,3.26-5.23,5.77-1.4,2.51-2.13,5.01-2.19,7.51-.06,2.5.53,4.77,1.76,6.81,1.23,2.05,3,3.72,5.3,5.01,3.11,1.74,6.12,2.28,9.04,1.63s5.42-2.35,7.52-5.09l-13.1-7.32,2.55-4.57,19.22,10.74-2.5,4.47c-1.88,2.5-4.24,4.46-7.07,5.87-2.83,1.41-5.87,2.09-9.12,2.05-3.25-.04-6.4-.91-9.44-2.61-3.28-1.83-5.85-4.27-7.71-7.3-1.86-3.04-2.83-6.36-2.9-9.95-.08-3.6.84-7.1,2.75-10.52,1.91-3.41,4.41-6.03,7.52-7.85,3.1-1.82,6.45-2.73,10.02-2.73s6.99.91,10.24,2.72c3.71,2.08,6.51,4.83,8.38,8.28,1.88,3.44,2.53,7.2,1.97,11.28l-6.88-3.84Z"/>
    <path d="M1177.67,237.46c-1.75-3.12-2.57-6.49-2.48-10.11.09-3.62,1.16-7.09,3.21-10.42,2.05-3.33,4.67-5.84,7.84-7.53s6.56-2.46,10.13-2.3c3.57.15,6.95,1.21,10.11,3.16,3.2,1.97,5.67,4.52,7.42,7.64,1.74,3.12,2.57,6.48,2.47,10.07-.1,3.59-1.17,7.05-3.22,10.38-2.05,3.33-4.66,5.85-7.84,7.57-3.17,1.71-6.55,2.5-10.12,2.34-3.58-.15-6.96-1.22-10.16-3.19-3.17-1.95-5.62-4.49-7.37-7.61ZM1194.99,242.39c2.4.06,4.68-.56,6.85-1.86s4.03-3.2,5.58-5.71c1.55-2.51,2.41-5.02,2.58-7.53s-.31-4.81-1.45-6.91c-1.14-2.1-2.83-3.84-5.09-5.23-2.25-1.39-4.57-2.12-6.96-2.19-2.39-.07-4.66.53-6.82,1.81-2.16,1.28-4.02,3.18-5.57,5.69-1.55,2.51-2.41,5.03-2.59,7.55-.18,2.52.29,4.84,1.42,6.95,1.13,2.11,2.82,3.87,5.07,5.25,2.25,1.39,4.58,2.11,6.97,2.17Z"/>
    <path d="M1260,260.19c.29-2.23-.02-4.28-.94-6.17-.92-1.89-2.38-3.52-4.35-4.91-2.17-1.52-4.44-2.38-6.82-2.6-2.38-.21-4.67.24-6.88,1.36s-4.14,2.86-5.79,5.21c-1.65,2.36-2.63,4.77-2.93,7.25-.31,2.48.05,4.79,1.06,6.96,1.01,2.16,2.6,4,4.77,5.52,2.92,2.04,5.86,2.89,8.83,2.53,2.96-.36,5.63-1.79,8-4.3l-12.29-8.61,3-4.29,18.04,12.63-2.93,4.19c-2.13,2.3-4.67,4.01-7.62,5.12-2.96,1.11-6.05,1.49-9.28,1.12-3.23-.37-6.27-1.55-9.13-3.55-3.08-2.16-5.39-4.84-6.93-8.05-1.54-3.21-2.17-6.61-1.88-10.2.29-3.59,1.56-6.98,3.8-10.19,2.24-3.2,5-5.55,8.27-7.05s6.69-2.07,10.25-1.7c3.56.36,6.86,1.61,9.91,3.74,3.49,2.44,5.99,5.47,7.51,9.08,1.52,3.61,1.79,7.42.82,11.42l-6.45-4.52Z"/>
    <path d="M1263.59,295.4c-1.41-3.29-1.89-6.72-1.42-10.31.46-3.59,1.89-6.93,4.27-10.03,2.39-3.1,5.25-5.32,8.58-6.67,3.34-1.35,6.77-1.76,10.32-1.24,3.54.52,6.78,1.92,9.73,4.19,2.98,2.29,5.17,5.08,6.58,8.37,1.41,3.29,1.88,6.71,1.42,10.27s-1.89,6.89-4.28,9.99-5.25,5.33-8.58,6.71c-3.33,1.38-6.77,1.8-10.31,1.28-3.54-.52-6.8-1.93-9.77-4.22-2.95-2.27-5.12-5.05-6.54-8.33ZM1280.31,302.11c2.38.31,4.71-.07,7.01-1.14,2.29-1.06,4.34-2.76,6.14-5.1,1.8-2.34,2.92-4.75,3.35-7.22.43-2.47.19-4.81-.73-7.02-.92-2.2-2.42-4.11-4.52-5.73-2.1-1.61-4.33-2.58-6.69-2.9s-4.69.04-6.97,1.09c-2.28,1.05-4.33,2.74-6.12,5.08-1.8,2.34-2.92,4.75-3.36,7.24-.44,2.49-.21,4.84.69,7.06s2.4,4.14,4.5,5.75c2.1,1.61,4.33,2.57,6.71,2.88Z"/>
    <path d="M1299.6,319.98l10.39,8.63-3.38,4.07-15.44-12.82,25.53-30.74,5.04,4.19-22.15,26.67Z"/>
    <path d="M1354.59,321.62l-3.54,4.01-12.72-11.22-7.8,8.84,9.92,8.75-3.54,4.01-9.92-8.75-11.56,13.11-4.92-4.34,26.43-29.97,17.64,15.55Z"/>
    <path d="M1343.54,364.89c-.03-1.14.37-2.14,1.19-3,.82-.86,1.8-1.3,2.94-1.33,1.14-.03,2.14.37,3,1.19.83.79,1.26,1.76,1.28,2.9.03,1.14-.37,2.14-1.19,3-.82.86-1.8,1.3-2.94,1.33-1.14.03-2.12-.36-2.95-1.15-.86-.82-1.3-1.8-1.33-2.94Z"/>
    <path d="M1404.14,386.92c.74-2.12.84-4.2.32-6.23-.53-2.04-1.62-3.93-3.28-5.69-1.82-1.92-3.87-3.23-6.15-3.92s-4.62-.71-7.01-.06c-2.39.65-4.63,1.96-6.72,3.94s-3.54,4.14-4.33,6.51c-.8,2.36-.92,4.71-.36,7.03.56,2.32,1.74,4.44,3.56,6.37,2.45,2.59,5.16,4.01,8.14,4.26,2.97.25,5.87-.62,8.7-2.6l-10.31-10.91,3.8-3.59,15.12,16.01-3.72,3.51c-2.55,1.83-5.38,2.99-8.5,3.48-3.12.5-6.22.24-9.31-.77-3.09-1.01-5.83-2.78-8.23-5.32-2.58-2.73-4.3-5.82-5.17-9.28s-.79-6.91.21-10.37c1.01-3.46,2.93-6.53,5.77-9.21,2.84-2.68,6.02-4.43,9.52-5.24,3.51-.81,6.97-.68,10.38.4,3.41,1.07,6.4,2.96,8.95,5.66,2.92,3.09,4.76,6.56,5.52,10.41.76,3.84.26,7.63-1.5,11.35l-5.41-5.73Z"/>
    <path d="M1400.43,422.14c-.69-3.51-.43-6.97.78-10.38,1.21-3.41,3.3-6.38,6.28-8.91,2.98-2.53,6.25-4.1,9.79-4.72,3.55-.62,6.99-.3,10.34.96s6.23,3.3,8.63,6.14c2.43,2.87,3.99,6.05,4.68,9.57.69,3.51.43,6.96-.77,10.34-1.2,3.38-3.3,6.34-6.28,8.87-2.98,2.53-6.25,4.11-9.8,4.76-3.55.64-7,.34-10.35-.92-3.35-1.26-6.24-3.32-8.67-6.18-2.4-2.84-3.95-6.01-4.64-9.52ZM1415.37,432.21c2.26.8,4.62.92,7.09.36,2.47-.56,4.83-1.79,7.08-3.7,2.25-1.91,3.85-4.03,4.79-6.36.94-2.33,1.19-4.67.76-7.02-.43-2.35-1.5-4.53-3.21-6.55-1.71-2.02-3.69-3.43-5.93-4.24-2.25-.81-4.59-.94-7.04-.4-2.45.54-4.8,1.77-7.06,3.68s-3.86,4.03-4.81,6.38c-.96,2.34-1.22,4.69-.81,7.05.42,2.36,1.48,4.55,3.19,6.57,1.71,2.02,3.7,3.43,5.96,4.22Z"/>
    <path d="M1471.26,470.02c1.01-2.01,1.39-4.05,1.13-6.14-.25-2.09-1.09-4.11-2.5-6.06-1.55-2.14-3.41-3.71-5.59-4.69s-4.49-1.31-6.95-.97c-2.46.33-4.85,1.34-7.18,3.03-2.33,1.68-4.05,3.65-5.15,5.88-1.1,2.24-1.53,4.55-1.28,6.92.25,2.37,1.15,4.63,2.7,6.78,2.09,2.89,4.59,4.65,7.51,5.28,2.92.63,5.9.15,8.96-1.44l-8.79-12.16,4.24-3.07,12.9,17.85-4.15,3c-2.76,1.48-5.72,2.26-8.88,2.34-3.16.08-6.2-.58-9.13-1.98-2.93-1.41-5.42-3.52-7.46-6.35-2.2-3.04-3.5-6.33-3.91-9.87-.41-3.54.12-6.96,1.57-10.25,1.45-3.29,3.76-6.09,6.93-8.38,3.17-2.29,6.54-3.61,10.13-3.95s7,.24,10.24,1.75,5.96,3.77,8.13,6.79c2.49,3.45,3.86,7.13,4.11,11.04.25,3.91-.74,7.6-2.97,11.05l-4.62-6.38Z"/>
    <path d="M1462.9,504.5c-.2-3.57.54-6.96,2.21-10.17s4.16-5.86,7.46-7.95c3.31-2.09,6.76-3.19,10.35-3.31,3.6-.12,6.97.67,10.11,2.38,3.14,1.71,5.71,4.13,7.7,7.28,2.01,3.17,3.11,6.55,3.3,10.12.19,3.57-.54,6.95-2.2,10.13-1.66,3.18-4.15,5.82-7.45,7.91-3.3,2.09-6.76,3.21-10.36,3.35-3.6.15-6.98-.63-10.12-2.34-3.14-1.71-5.72-4.15-7.73-7.33-1.99-3.14-3.08-6.5-3.27-10.07ZM1476.29,516.54c2.13,1.1,4.45,1.55,6.97,1.34s5.03-1.1,7.52-2.68,4.37-3.45,5.62-5.63c1.25-2.18,1.83-4.46,1.73-6.84s-.86-4.7-2.27-6.93c-1.41-2.24-3.18-3.91-5.29-5.03-2.11-1.11-4.42-1.57-6.92-1.37-2.5.2-5,1.09-7.5,2.66-2.5,1.58-4.38,3.46-5.65,5.65s-1.86,4.48-1.78,6.87c.09,2.4.83,4.71,2.25,6.95,1.41,2.24,3.18,3.91,5.31,5.01Z"/>
    <path d="M1488,539.97l6.61,11.78-4.61,2.59-9.82-17.5,34.85-19.56,3.21,5.72-30.23,16.97Z"/>
    <path d="M1538.64,561.75l-4.77,2.42-7.66-15.13-10.52,5.32,5.97,11.8-4.77,2.42-5.97-11.8-15.6,7.89-2.96-5.85,35.66-18.04,10.62,20.98Z"/>
    <path d="M1511.99,597.79c.42-1.06,1.17-1.82,2.27-2.29,1.09-.47,2.17-.5,3.22-.08,1.06.42,1.82,1.17,2.29,2.27.46,1.05.47,2.11.05,3.17-.42,1.06-1.17,1.82-2.26,2.29-1.09.47-2.17.5-3.22.08-1.06-.42-1.82-1.16-2.27-2.21-.47-1.09-.5-2.17-.08-3.22Z"/>
    <path d="M1558.57,642.44c1.55-1.62,2.51-3.47,2.87-5.54.36-2.07.16-4.25-.63-6.53-.86-2.5-2.18-4.54-3.98-6.11-1.79-1.57-3.92-2.56-6.36-2.96s-5.03-.13-7.75.8c-2.72.93-4.93,2.31-6.64,4.13-1.71,1.82-2.79,3.9-3.24,6.25-.45,2.34-.25,4.77.6,7.27,1.16,3.37,3.04,5.79,5.64,7.25,2.61,1.46,5.6,1.87,8.99,1.24l-4.86-14.2,4.95-1.69,7.13,20.83-4.84,1.66c-3.07.61-6.13.49-9.18-.35s-5.76-2.36-8.16-4.56c-2.39-2.2-4.16-4.95-5.29-8.25-1.22-3.55-1.5-7.08-.86-10.58s2.14-6.62,4.49-9.35c2.35-2.73,5.37-4.73,9.07-5.99s7.31-1.54,10.84-.82c3.53.72,6.62,2.27,9.28,4.66,2.66,2.39,4.6,5.34,5.8,8.86,1.38,4.03,1.62,7.95.71,11.76-.9,3.81-2.92,7.05-6.07,9.7l-2.55-7.45Z"/>
    <path d="M1540.19,672.86c.94-3.45,2.7-6.44,5.3-8.96,2.59-2.52,5.79-4.25,9.58-5.2,3.79-.94,7.42-.91,10.87.11,3.45,1.02,6.4,2.83,8.85,5.44,2.45,2.61,4.12,5.72,5.02,9.33.91,3.65.89,7.19-.05,10.65-.94,3.45-2.7,6.43-5.27,8.93-2.58,2.5-5.76,4.22-9.56,5.16-3.79.94-7.42.92-10.89-.08s-6.42-2.8-8.87-5.41c-2.45-2.61-4.12-5.74-5.03-9.38-.9-3.61-.88-7.14.06-10.59ZM1549.12,688.5c1.67,1.72,3.74,2.87,6.19,3.47,2.46.59,5.12.53,7.98-.18,2.86-.71,5.23-1.91,7.11-3.58,1.88-1.67,3.14-3.66,3.79-5.95.65-2.3.66-4.73.02-7.29-.64-2.57-1.79-4.71-3.44-6.43-1.65-1.72-3.7-2.88-6.14-3.48-2.44-.6-5.09-.54-7.96.17s-5.24,1.91-7.14,3.58c-1.89,1.68-3.18,3.66-3.85,5.96-.67,2.3-.69,4.73-.05,7.3.64,2.57,1.79,4.71,3.47,6.43Z"/>
    <path d="M1580.65,748.38c1.86-1.26,3.18-2.87,3.98-4.81.79-1.95,1.05-4.12.76-6.52-.31-2.63-1.18-4.9-2.6-6.81-1.42-1.92-3.29-3.33-5.6-4.23s-4.89-1.19-7.74-.85c-2.86.34-5.31,1.22-7.36,2.64-2.05,1.42-3.55,3.23-4.48,5.42-.94,2.2-1.25,4.61-.94,7.23.42,3.54,1.75,6.3,3.99,8.27,2.24,1.97,5.08,3.01,8.53,3.1l-1.76-14.9,5.2-.62,2.59,21.87-5.08.6c-3.13-.05-6.1-.81-8.9-2.28-2.8-1.46-5.14-3.52-7.01-6.18-1.88-2.65-3.02-5.71-3.43-9.18-.44-3.73.02-7.24,1.39-10.53,1.37-3.29,3.49-6.02,6.35-8.19,2.87-2.17,6.25-3.49,10.13-3.95,3.88-.46,7.47.03,10.77,1.48,3.3,1.44,6,3.61,8.1,6.51,2.1,2.9,3.37,6.19,3.8,9.88.5,4.23-.09,8.11-1.78,11.65-1.69,3.54-4.34,6.28-7.97,8.21l-.93-7.82Z"/>
    <path d="M1556.08,774.18c1.7-3.15,4.09-5.66,7.19-7.53,3.1-1.87,6.6-2.83,10.51-2.89,3.91-.06,7.43.8,10.56,2.58,3.13,1.77,5.59,4.21,7.38,7.31,1.79,3.1,2.71,6.51,2.77,10.22.06,3.76-.77,7.21-2.46,10.36-1.7,3.15-4.09,5.65-7.16,7.5-3.08,1.85-6.57,2.8-10.48,2.86-3.91.06-7.44-.79-10.59-2.55-3.15-1.76-5.62-4.18-7.41-7.28-1.79-3.1-2.71-6.53-2.77-10.28-.06-3.72.77-7.15,2.46-10.3ZM1561.23,791.44c1.24,2.05,2.99,3.65,5.25,4.78,2.26,1.14,4.87,1.68,7.82,1.64s5.53-.67,7.74-1.87c2.21-1.2,3.89-2.85,5.04-4.93,1.16-2.09,1.72-4.45,1.68-7.1-.04-2.65-.67-4.99-1.89-7.05-1.22-2.05-2.95-3.65-5.19-4.78-2.24-1.14-4.84-1.68-7.79-1.64-2.95.04-5.54.67-7.76,1.87-2.22,1.2-3.93,2.85-5.1,4.93-1.18,2.09-1.75,4.45-1.71,7.1s.68,4.99,1.92,7.04Z"/>
    <path d="M1558.48,817.38l-.96,13.48-5.28-.38,1.42-20.02,39.86,2.83-.46,6.54-34.58-2.46Z"/>
    <path d="M1587.99,864.11l-5.29-.75,2.37-16.8-11.67-1.65-1.85,13.1-5.29-.75,1.85-13.09-17.31-2.44.92-6.49,39.57,5.58-3.29,23.29Z"/>
    <path d="M1545.05,878.06c.97-.6,2.03-.76,3.19-.48s2.03.9,2.63,1.87c.6.97.76,2.03.48,3.19-.27,1.12-.89,1.98-1.86,2.57-.97.6-2.03.76-3.19.48-1.16-.28-2.03-.9-2.63-1.87-.6-.97-.76-2.01-.49-3.13.28-1.16.9-2.03,1.87-2.63Z"/>
    <path d="M1554.19,941.98c2.23-.29,4.13-1.12,5.72-2.51,1.58-1.38,2.79-3.21,3.62-5.47.91-2.48,1.15-4.9.75-7.25s-1.44-4.45-3.09-6.3c-1.65-1.85-3.83-3.26-6.53-4.25s-5.29-1.31-7.76-.96c-2.47.34-4.62,1.28-6.45,2.82s-3.19,3.55-4.1,6.03c-1.22,3.35-1.28,6.41-.16,9.18,1.11,2.77,3.18,4.98,6.22,6.61l5.14-14.1,4.92,1.79-7.54,20.69-4.81-1.75c-2.77-1.46-5.08-3.47-6.92-6.04-1.84-2.57-3-5.46-3.48-8.67-.48-3.21-.12-6.46,1.07-9.74,1.29-3.53,3.28-6.45,5.98-8.77,2.7-2.32,5.82-3.8,9.36-4.45,3.54-.65,7.15-.3,10.82,1.04,3.67,1.34,6.66,3.4,8.95,6.17,2.29,2.77,3.72,5.93,4.29,9.46.57,3.53.22,7.05-1.06,10.54-1.46,4-3.74,7.2-6.83,9.6-3.1,2.4-6.71,3.65-10.82,3.74l2.7-7.4Z"/>
    <path d="M1520.51,953.75c2.96-2.01,6.25-3.12,9.86-3.34,3.61-.22,7.16.54,10.65,2.3s6.22,4.15,8.17,7.17c1.96,3.02,3.01,6.32,3.16,9.89s-.6,7.02-2.28,10.34c-1.69,3.36-4.01,6.04-6.98,8.04-2.96,2.01-6.23,3.12-9.82,3.33-3.58.21-7.12-.56-10.61-2.32-3.49-1.76-6.23-4.14-8.21-7.16-1.98-3.01-3.05-6.31-3.2-9.88-.15-3.58.61-7.04,2.3-10.4,1.67-3.32,3.99-5.99,6.95-7.99ZM1517.08,971.43c.15,2.39.96,4.61,2.44,6.67,1.48,2.05,3.53,3.74,6.17,5.07,2.64,1.33,5.21,1.97,7.72,1.92,2.51-.05,4.76-.73,6.75-2.04,1.99-1.32,3.58-3.15,4.77-5.52,1.19-2.36,1.72-4.74,1.59-7.12s-.93-4.6-2.39-6.64c-1.46-2.04-3.51-3.73-6.15-5.06-2.64-1.33-5.22-1.97-7.75-1.93-2.53.04-4.8.71-6.81,2.01s-3.61,3.14-4.8,5.5c-1.19,2.36-1.71,4.74-1.56,7.13Z"/>
    <path d="M1500.61,1037.18c2.22.32,4.28.02,6.18-.88,1.9-.91,3.55-2.34,4.95-4.31,1.54-2.15,2.42-4.42,2.66-6.79.24-2.38-.19-4.67-1.29-6.89-1.1-2.22-2.82-4.17-5.16-5.84-2.34-1.67-4.75-2.67-7.22-3-2.47-.33-4.8,0-6.97.99s-4.02,2.57-5.56,4.72c-2.07,2.9-2.94,5.83-2.62,8.8.33,2.97,1.74,5.65,4.22,8.04l8.73-12.21,4.26,3.04-12.8,17.92-4.16-2.98c-2.28-2.15-3.96-4.71-5.05-7.67-1.08-2.97-1.43-6.06-1.03-9.29.4-3.23,1.61-6.26,3.64-9.1,2.18-3.06,4.89-5.34,8.11-6.85,3.22-1.51,6.63-2.11,10.21-1.78,3.58.32,6.97,1.62,10.15,3.9,3.18,2.27,5.5,5.05,6.97,8.34,1.47,3.29,2,6.71,1.6,10.26-.4,3.55-1.68,6.85-3.84,9.87-2.47,3.46-5.53,5.93-9.15,7.42-3.63,1.48-7.44,1.72-11.42.71l4.58-6.41Z"/>
    <path d="M1465.02,1039.55c3.39-1.16,6.85-1.37,10.39-.64,3.54.73,6.77,2.41,9.67,5.02,2.91,2.61,4.91,5.64,6,9.07s1.24,6.89.45,10.38c-.79,3.49-2.43,6.62-4.92,9.38-2.51,2.79-5.46,4.77-8.85,5.93-3.39,1.16-6.83,1.37-10.35.63-3.51-.74-6.72-2.41-9.63-5.02-2.91-2.61-4.92-5.63-6.04-9.06s-1.28-6.89-.49-10.38c.79-3.49,2.44-6.63,4.95-9.43,2.49-2.77,5.42-4.73,8.81-5.88ZM1457.06,1055.71c-.49,2.35-.28,4.7.6,7.07.89,2.37,2.43,4.54,4.62,6.51,2.19,1.97,4.51,3.27,6.95,3.88,2.43.62,4.79.55,7.05-.19,2.27-.75,4.29-2.1,6.05-4.07,1.77-1.97,2.9-4.12,3.4-6.45s.31-4.68-.56-7.03c-.87-2.36-2.41-4.52-4.6-6.49-2.2-1.97-4.52-3.28-6.97-3.9-2.45-.63-4.81-.58-7.1.15-2.28.73-4.31,2.08-6.08,4.05-1.77,1.97-2.89,4.12-3.38,6.47Z"/>
    <path d="M1437.42,1072.89l-9.84,9.26-3.62-3.85,14.62-13.75,27.38,29.11-4.78,4.49-23.75-25.26Z"/>
    <path d="M1427.67,1127.25l-3.41-4.12,13.06-10.82-7.52-9.08-10.18,8.44-3.41-4.12,10.18-8.44-11.15-13.46,5.05-4.18,25.5,30.77-18.11,15.01Z"/>
    <path d="M1386.55,1108.92c1.12.2,2.02.78,2.71,1.75.68.97.93,2.02.73,3.14-.2,1.12-.78,2.02-1.75,2.71-.94.66-1.97.89-3.09.7-1.12-.2-2.02-.78-2.71-1.75-.68-.97-.93-2.02-.73-3.14.2-1.12.76-2.01,1.7-2.67.97-.68,2.02-.93,3.14-.73Z"/>
    <path d="M1351.96,1163.35c1.89,1.21,3.89,1.79,5.99,1.75,2.1-.04,4.2-.67,6.29-1.88,2.29-1.32,4.03-3.02,5.23-5.08s1.75-4.34,1.67-6.81c-.08-2.48-.84-4.96-2.28-7.45-1.44-2.49-3.22-4.4-5.33-5.72-2.12-1.32-4.37-1.98-6.75-1.97s-4.73.67-7.01,2c-3.09,1.78-5.09,4.1-6.02,6.93-.93,2.84-.75,5.86.52,9.06l12.99-7.51,2.62,4.53-19.06,11.02-2.56-4.43c-1.19-2.9-1.67-5.92-1.43-9.07.24-3.15,1.21-6.11,2.9-8.88,1.7-2.77,4.05-5.03,7.07-6.78,3.25-1.88,6.66-2.84,10.22-2.89,3.56-.04,6.91.82,10.04,2.6,3.13,1.78,5.67,4.36,7.63,7.74,1.96,3.38,2.93,6.88,2.9,10.48-.02,3.6-.95,6.94-2.78,10.01-1.83,3.07-4.36,5.54-7.58,7.4-3.68,2.13-7.48,3.12-11.4,2.97-3.92-.15-7.48-1.51-10.69-4.08l6.82-3.94Z"/>
    <path d="M1318.54,1151.2c3.57.24,6.85,1.39,9.83,3.43,2.98,2.05,5.31,4.84,6.98,8.37,1.67,3.54,2.35,7.1,2.03,10.68-.32,3.58-1.52,6.83-3.6,9.75-2.08,2.91-4.8,5.16-8.16,6.75-3.4,1.6-6.88,2.29-10.45,2.04-3.57-.24-6.83-1.38-9.79-3.42-2.96-2.04-5.27-4.82-6.94-8.36-1.67-3.54-2.36-7.1-2.06-10.69.29-3.6,1.48-6.85,3.56-9.76,2.08-2.91,4.82-5.17,8.21-6.77,3.36-1.59,6.83-2.26,10.4-2.02ZM1304.95,1163.02c-1.36,1.98-2.08,4.23-2.18,6.75-.1,2.53.48,5.12,1.74,7.79s2.89,4.76,4.9,6.27c2.01,1.51,4.2,2.36,6.58,2.55,2.38.19,4.76-.28,7.16-1.41s4.27-2.67,5.63-4.63c1.36-1.96,2.1-4.19,2.21-6.7s-.47-5.1-1.73-7.77c-1.26-2.67-2.9-4.77-4.91-6.29-2.01-1.53-4.22-2.4-6.6-2.6-2.39-.21-4.78.25-7.17,1.38s-4.26,2.68-5.62,4.66Z"/>
    <path d="M1253.14,1206.42c1.64,1.53,3.5,2.47,5.57,2.81,2.07.34,4.25.11,6.52-.7,2.49-.88,4.52-2.23,6.07-4.04,1.55-1.81,2.52-3.94,2.89-6.39.37-2.45.08-5.03-.88-7.74-.96-2.71-2.36-4.91-4.2-6.59-1.84-1.69-3.93-2.75-6.28-3.17-2.35-.43-4.77-.2-7.26.68-3.36,1.19-5.75,3.1-7.18,5.72-1.43,2.62-1.81,5.62-1.14,9.01l14.14-5.02,1.75,4.93-20.76,7.36-1.71-4.82c-.64-3.07-.56-6.13.25-9.18.81-3.05,2.3-5.79,4.47-8.21,2.17-2.42,4.9-4.21,8.19-5.38,3.54-1.26,7.07-1.58,10.58-.97,3.51.61,6.64,2.07,9.39,4.39,2.75,2.32,4.78,5.32,6.09,9,1.31,3.69,1.62,7.29.94,10.83-.68,3.54-2.2,6.65-4.56,9.33-2.36,2.69-5.29,4.65-8.8,5.9-4.01,1.42-7.93,1.7-11.75.84-3.82-.86-7.08-2.85-9.77-5.96l7.42-2.63Z"/>
    <path d="M1222.47,1188.56c3.48.84,6.51,2.52,9.11,5.04,2.59,2.52,4.42,5.66,5.46,9.43,1.05,3.77,1.12,7.39.19,10.87-.92,3.48-2.65,6.48-5.19,9-2.54,2.52-5.6,4.28-9.18,5.28-3.62,1.01-7.17,1.09-10.64.25-3.48-.84-6.5-2.52-9.07-5.02-2.57-2.51-4.38-5.64-5.43-9.41-1.05-3.77-1.13-7.4-.23-10.89.9-3.49,2.62-6.5,5.16-9.02,2.54-2.52,5.62-4.28,9.24-5.29,3.58-1,7.11-1.08,10.59-.24ZM1207.08,1197.92c-1.67,1.72-2.77,3.82-3.29,6.29-.52,2.47-.39,5.13.4,7.98.79,2.84,2.05,5.18,3.77,7.01,1.72,1.83,3.74,3.04,6.05,3.62,2.31.59,4.74.53,7.29-.18,2.55-.71,4.66-1.92,6.33-3.62s2.78-3.78,3.31-6.23c.53-2.46.4-5.1-.4-7.95s-2.05-5.19-3.78-7.03c-1.73-1.85-3.75-3.07-6.07-3.68s-4.75-.56-7.3.15c-2.55.71-4.66,1.92-6.33,3.64Z"/>
    <path d="M1181.22,1202.41l-13.18,2.96-1.16-5.16,19.58-4.4,8.76,38.99-6.4,1.44-7.6-33.83Z"/>
    <path d="M1146.07,1244.78l-.97-5.26,16.68-3.09-2.15-11.59-13,2.41-.97-5.26,13-2.41-3.18-17.19,6.45-1.19,7.28,39.29-23.12,4.28Z"/>
    <path d="M1118.87,1209.25c.91.69,1.44,1.62,1.6,2.8.16,1.18-.1,2.22-.79,3.12-.69.91-1.62,1.44-2.8,1.6-1.14.15-2.16-.11-3.07-.8-.91-.69-1.44-1.62-1.6-2.8-.16-1.18.11-2.22.79-3.12.69-.91,1.6-1.44,2.74-1.59,1.18-.16,2.22.11,3.12.79Z"/>
    <path d="M1063.83,1242.76c1.19,1.9,2.74,3.29,4.66,4.15,1.92.86,4.08,1.2,6.48,1.01,2.64-.21,4.94-.99,6.91-2.34,1.97-1.35,3.45-3.16,4.44-5.43s1.37-4.84,1.14-7.71c-.23-2.87-1.01-5.35-2.36-7.45-1.34-2.1-3.09-3.67-5.25-4.68-2.16-1.02-4.56-1.42-7.19-1.21-3.55.29-6.36,1.51-8.42,3.67-2.06,2.16-3.2,4.97-3.42,8.41l14.96-1.2.42,5.22-21.95,1.76-.41-5.1c.17-3.13,1.04-6.06,2.61-8.8,1.57-2.74,3.71-5,6.44-6.78,2.72-1.78,5.82-2.8,9.3-3.08,3.75-.3,7.23.29,10.47,1.78s5.88,3.71,7.95,6.66c2.06,2.95,3.25,6.37,3.56,10.27.31,3.9-.31,7.47-1.88,10.71-1.57,3.24-3.84,5.85-6.81,7.84-2.97,1.99-6.31,3.13-10.02,3.43-4.24.34-8.1-.4-11.57-2.21-3.47-1.82-6.11-4.58-7.9-8.28l7.85-.63Z"/>
    <path d="M1038.67,1217.81c3.17,1.66,5.71,4.02,7.61,7.1,1.91,3.07,2.91,6.56,3.02,10.47.11,3.91-.71,7.44-2.44,10.59-1.74,3.15-4.14,5.64-7.22,7.47-3.08,1.83-6.47,2.79-10.19,2.9-3.75.1-7.22-.68-10.39-2.33-3.17-1.66-5.7-4.01-7.58-7.07s-2.88-6.54-2.99-10.44c-.11-3.91.7-7.45,2.41-10.62,1.72-3.17,4.11-5.67,7.19-7.5,3.08-1.83,6.49-2.79,10.25-2.9,3.72-.1,7.16.68,10.33,2.33ZM1021.48,1223.17c-2.04,1.26-3.61,3.03-4.72,5.31-1.11,2.27-1.62,4.88-1.54,7.84.08,2.95.74,5.52,1.97,7.71s2.89,3.85,5,4.98,4.47,1.66,7.12,1.59c2.64-.07,4.98-.73,7.02-1.97,2.04-1.25,3.61-3,4.72-5.25,1.11-2.25,1.62-4.86,1.54-7.81-.08-2.95-.74-5.53-1.97-7.74-1.23-2.21-2.9-3.89-5-5.04s-4.48-1.69-7.12-1.62c-2.64.07-4.98.74-7.02,2Z"/>
    <path d="M957.16,1243.51c.96,2.03,2.33,3.59,4.13,4.68,1.8,1.09,3.9,1.68,6.32,1.77,2.64.1,5.02-.4,7.14-1.5s3.8-2.73,5.05-4.86c1.25-2.14,1.94-4.64,2.05-7.52.11-2.87-.37-5.43-1.45-7.68-1.08-2.25-2.63-4.01-4.65-5.28s-4.35-1.96-7-2.06c-3.56-.14-6.49.74-8.79,2.65-2.3,1.9-3.77,4.55-4.4,7.94l15,.59-.21,5.23-22-.87.2-5.11c.54-3.09,1.76-5.9,3.64-8.43,1.88-2.54,4.28-4.52,7.2-5.96,2.92-1.44,6.12-2.09,9.6-1.95,3.75.15,7.15,1.15,10.18,3.02,3.03,1.87,5.4,4.38,7.1,7.56,1.7,3.17,2.47,6.71,2.31,10.62-.15,3.91-1.2,7.38-3.14,10.41-1.94,3.03-4.51,5.36-7.7,6.98-3.19,1.62-6.64,2.36-10.36,2.21-4.25-.17-7.99-1.36-11.22-3.58-3.23-2.22-5.52-5.27-6.86-9.16l7.87.31Z"/>
    <path d="M935.12,1215.8c2.96,2.01,5.21,4.65,6.75,7.92s2.14,6.85,1.8,10.75-1.55,7.31-3.64,10.25c-2.08,2.94-4.76,5.13-8.02,6.6-3.26,1.47-6.75,2.04-10.45,1.71-3.74-.33-7.09-1.5-10.05-3.5-2.96-2.01-5.2-4.64-6.73-7.89-1.53-3.25-2.12-6.82-1.78-10.72.34-3.9,1.54-7.32,3.61-10.28,2.07-2.96,4.73-5.17,8-6.63,3.26-1.47,6.77-2.04,10.51-1.71,3.71.32,7.04,1.49,10,3.5ZM917.43,1219.16c-2.17,1.02-3.93,2.6-5.29,4.73-1.36,2.13-2.17,4.67-2.42,7.61s.1,5.57,1.07,7.89c.97,2.32,2.44,4.16,4.4,5.52,1.96,1.36,4.26,2.16,6.89,2.39,2.63.23,5.04-.16,7.2-1.16,2.17-1,3.93-2.56,5.29-4.68,1.36-2.11,2.17-4.64,2.42-7.58s-.1-5.58-1.07-7.91c-.97-2.33-2.43-4.19-4.39-5.58s-4.25-2.19-6.89-2.42c-2.64-.23-5.04.17-7.2,1.19Z"/>
    <path d="M891.57,1214.51l-13.41-1.66.65-5.25,19.92,2.47-4.92,39.66-6.5-.81,4.27-34.41Z"/>
    <path d="M844.39,1242.83l.81-5.29,16.77,2.56,1.78-11.65-13.07-1.99.81-5.29,13.07,1.99,2.63-17.28,6.48.99-6.02,39.51-23.25-3.54Z"/>
    <path d="M830.25,1200.51c.64.94.85,1.99.63,3.16-.22,1.17-.8,2.07-1.74,2.71-.94.64-2,.85-3.16.63-1.13-.21-2.02-.79-2.66-1.73-.64-.94-.85-2-.63-3.16.22-1.17.8-2.07,1.74-2.71.94-.64,1.98-.85,3.11-.64,1.17.22,2.07.8,2.71,1.74Z"/>
    <path d="M767.56,1215.31c.55,2.18,1.61,3.97,3.17,5.38,1.56,1.41,3.52,2.39,5.87,2.94,2.58.6,5.01.56,7.29-.12,2.29-.69,4.25-1.96,5.88-3.82,1.64-1.86,2.78-4.19,3.44-6.99.66-2.8.67-5.41.03-7.82-.63-2.41-1.83-4.43-3.57-6.06-1.74-1.63-3.9-2.75-6.48-3.35-3.47-.81-6.52-.5-9.14.93-2.62,1.43-4.56,3.75-5.82,6.96l14.61,3.42-1.19,5.09-21.44-5.02,1.17-4.98c1.12-2.93,2.84-5.46,5.17-7.59,2.33-2.13,5.06-3.63,8.2-4.49,3.13-.86,6.4-.89,9.8-.1,3.66.86,6.8,2.49,9.42,4.89,2.62,2.41,4.47,5.33,5.54,8.77,1.07,3.44,1.15,7.06.26,10.87s-2.58,7.01-5.06,9.62c-2.48,2.61-5.44,4.41-8.88,5.39-3.44.99-6.97,1.05-10.59.21-4.14-.97-7.59-2.85-10.34-5.64-2.75-2.79-4.42-6.22-5-10.3l7.67,1.8Z"/>
    <path d="M751.09,1183.97c2.54,2.52,4.27,5.53,5.18,9.03.91,3.5.84,7.13-.21,10.9-1.05,3.77-2.87,6.9-5.46,9.4-2.59,2.5-5.62,4.17-9.1,5.01-3.48.84-7.01.76-10.59-.24-3.62-1.01-6.7-2.78-9.24-5.3-2.54-2.52-4.26-5.52-5.16-8.99-.9-3.47-.82-7.1.23-10.86s2.87-6.91,5.44-9.44c2.58-2.52,5.6-4.21,9.08-5.05s7.03-.75,10.64.26c3.58,1,6.64,2.76,9.18,5.28ZM733.07,1184.01c-2.32.61-4.34,1.83-6.07,3.68-1.73,1.85-2.99,4.19-3.79,7.03-.79,2.84-.93,5.49-.4,7.95.53,2.46,1.63,4.53,3.3,6.24,1.67,1.7,3.79,2.91,6.33,3.62,2.55.71,4.98.77,7.29.19s4.33-1.79,6.06-3.62c1.72-1.83,2.98-4.16,3.78-7,.79-2.84.93-5.5.41-7.98-.52-2.47-1.62-4.57-3.29-6.29s-3.78-2.94-6.32-3.65c-2.55-.71-4.98-.76-7.3-.16Z"/>
    <path d="M665.69,1185c.34,2.22,1.22,4.11,2.63,5.66,1.42,1.55,3.27,2.72,5.55,3.5,2.5.85,4.93,1.05,7.27.59,2.34-.46,4.42-1.54,6.23-3.23,1.81-1.69,3.18-3.9,4.1-6.62.92-2.72,1.19-5.31.79-7.78-.4-2.46-1.38-4.59-2.96-6.38s-3.62-3.11-6.12-3.96c-3.38-1.15-6.44-1.13-9.18.04-2.75,1.17-4.9,3.29-6.47,6.36l14.21,4.83-1.68,4.95-20.85-7.08,1.65-4.85c1.4-2.8,3.36-5.15,5.89-7.05,2.53-1.9,5.39-3.12,8.59-3.67,3.2-.55,6.46-.27,9.76.86,3.56,1.21,6.53,3.14,8.9,5.79,2.38,2.65,3.93,5.74,4.66,9.26.73,3.53.46,7.14-.8,10.84s-3.25,6.73-5.97,9.08-5.84,3.85-9.36,4.5c-3.52.65-7.04.37-10.56-.82-4.03-1.37-7.28-3.58-9.75-6.62-2.47-3.05-3.79-6.62-3.97-10.73l7.46,2.53Z"/>
    <path d="M652.35,1152.23c2.29,2.75,3.72,5.91,4.29,9.48.58,3.57.16,7.18-1.25,10.83-1.41,3.65-3.52,6.59-6.33,8.83-2.82,2.24-5.99,3.61-9.54,4.12-3.54.5-7.05.09-10.52-1.25-3.5-1.35-6.4-3.4-8.69-6.16-2.29-2.75-3.71-5.9-4.28-9.45-.56-3.54-.14-7.14,1.27-10.79,1.41-3.65,3.51-6.61,6.32-8.87,2.81-2.27,5.98-3.65,9.52-4.15,3.54-.5,7.07-.08,10.57,1.27,3.47,1.34,6.35,3.38,8.63,6.13ZM634.42,1150.55c-2.37.38-4.5,1.41-6.4,3.08-1.9,1.67-3.38,3.88-4.44,6.64-1.06,2.75-1.45,5.38-1.16,7.87.29,2.5,1.19,4.67,2.69,6.52s3.49,3.26,5.96,4.21,4.88,1.25,7.24.88c2.36-.36,4.48-1.37,6.38-3.03,1.89-1.65,3.37-3.86,4.43-6.61,1.06-2.75,1.45-5.39,1.17-7.9s-1.17-4.71-2.67-6.58c-1.5-1.87-3.48-3.28-5.95-4.23-2.47-.95-4.88-1.24-7.25-.86Z"/>
    <path d="M610.82,1138.98l-12.45-5.26,2.06-4.87,18.48,7.81-15.56,36.81-6.04-2.55,13.5-31.94Z"/>
    <path d="M557.76,1153.46l2.2-4.87,15.46,6.99,4.86-10.74-12.05-5.45,2.2-4.87,12.05,5.45,7.2-15.93,5.97,2.7-16.47,36.41-21.43-9.69Z"/>
    <path d="M555.52,1108.91c.37,1.08.29,2.15-.24,3.22s-1.33,1.78-2.41,2.15c-1.08.37-2.15.29-3.22-.24-1.03-.51-1.73-1.3-2.09-2.38-.37-1.08-.29-2.15.24-3.22.53-1.07,1.33-1.78,2.41-2.15,1.08-.37,2.13-.29,3.16.21,1.07.53,1.78,1.33,2.15,2.41Z"/>
    <path d="M491.14,1106.45c-.05,2.25.5,4.25,1.62,6.03,1.13,1.77,2.75,3.24,4.87,4.39,2.32,1.27,4.68,1.87,7.06,1.82,2.39-.05,4.62-.76,6.69-2.12,2.07-1.36,3.8-3.3,5.17-5.82,1.38-2.52,2.08-5.03,2.11-7.53.03-2.5-.58-4.76-1.83-6.79-1.25-2.04-3.03-3.69-5.35-4.95-3.13-1.71-6.15-2.22-9.05-1.53-2.91.68-5.4,2.41-7.47,5.16l13.17,7.19-2.51,4.59-19.33-10.55,2.45-4.49c1.86-2.52,4.19-4.5,7.01-5.94,2.81-1.44,5.85-2.15,9.1-2.15,3.25,0,6.41.84,9.47,2.51,3.3,1.8,5.89,4.21,7.78,7.23,1.89,3.02,2.89,6.33,3,9.92.11,3.6-.77,7.11-2.64,10.55-1.87,3.43-4.35,6.08-7.44,7.93-3.08,1.85-6.42,2.8-10,2.83s-7-.84-10.26-2.62c-3.74-2.04-6.56-4.77-8.47-8.19s-2.6-7.17-2.08-11.25l6.92,3.77Z"/>
    <path d="M483.62,1071.88c1.78,3.11,2.64,6.47,2.59,10.08-.05,3.62-1.09,7.1-3.1,10.45-2.02,3.35-4.6,5.88-7.77,7.61-3.16,1.72-6.53,2.52-10.11,2.41-3.58-.12-6.96-1.13-10.14-3.05-3.22-1.94-5.72-4.46-7.49-7.56-1.78-3.11-2.64-6.45-2.58-10.04.06-3.59,1.1-7.06,3.11-10.41,2.02-3.35,4.6-5.9,7.76-7.65,3.16-1.75,6.52-2.56,10.1-2.45s6.97,1.14,10.19,3.08c3.19,1.92,5.67,4.43,7.44,7.54ZM466.25,1067.12c-2.4-.03-4.67.61-6.83,1.93s-4,3.24-5.52,5.77c-1.52,2.53-2.36,5.05-2.5,7.55s.36,4.8,1.52,6.89c1.16,2.08,2.87,3.81,5.14,5.17,2.27,1.36,4.59,2.07,6.98,2.12,2.39.05,4.65-.58,6.8-1.88,2.15-1.3,3.98-3.22,5.51-5.75,1.52-2.53,2.36-5.06,2.52-7.58.15-2.52-.34-4.84-1.49-6.94-1.15-2.1-2.86-3.83-5.12-5.2-2.27-1.36-4.6-2.06-6.99-2.1Z"/>
    <path d="M401.05,1050.01c-.27,2.23.07,4.28,1.01,6.16.95,1.88,2.41,3.5,4.41,4.86,2.18,1.49,4.46,2.33,6.84,2.52,2.38.19,4.67-.29,6.87-1.43,2.2-1.14,4.11-2.9,5.73-5.27,1.62-2.37,2.58-4.8,2.86-7.28.28-2.48-.1-4.79-1.14-6.94-1.04-2.15-2.65-3.97-4.83-5.46-2.94-2.01-5.89-2.83-8.85-2.44-2.96.39-5.61,1.85-7.95,4.39l12.39,8.47-2.96,4.32-18.17-12.44,2.89-4.22c2.1-2.32,4.62-4.06,7.57-5.2s6.03-1.55,9.26-1.22c3.23.33,6.29,1.48,9.17,3.45,3.1,2.12,5.44,4.78,7.02,7.97,1.58,3.19,2.24,6.58,1.99,10.18-.25,3.59-1.48,7-3.69,10.23-2.21,3.23-4.94,5.61-8.2,7.14s-6.67,2.14-10.23,1.81c-3.56-.32-6.88-1.54-9.95-3.64-3.51-2.4-6.04-5.4-7.6-9-1.56-3.6-1.87-7.4-.94-11.41l6.5,4.45Z"/>
    <path d="M397.08,1014.84c1.45,3.27,1.96,6.7,1.54,10.29-.42,3.59-1.81,6.95-4.16,10.07-2.35,3.12-5.19,5.38-8.51,6.77-3.32,1.39-6.75,1.84-10.3,1.35-3.54-.49-6.8-1.85-9.77-4.08-3-2.26-5.23-5.02-6.67-8.3-1.45-3.27-1.96-6.69-1.53-10.25.43-3.56,1.82-6.91,4.17-10.03,2.35-3.12,5.19-5.39,8.5-6.81,3.32-1.41,6.75-1.88,10.29-1.39,3.55.49,6.82,1.86,9.82,4.12,2.97,2.24,5.18,4.99,6.63,8.26ZM380.29,1008.32c-2.38-.28-4.71.12-6.99,1.21-2.28,1.09-4.31,2.81-6.09,5.17-1.78,2.36-2.86,4.78-3.27,7.26-.4,2.48-.13,4.82.8,7.01s2.47,4.09,4.58,5.68c2.11,1.59,4.35,2.53,6.72,2.83,2.37.29,4.69-.09,6.96-1.17,2.27-1.07,4.29-2.79,6.07-5.15,1.78-2.36,2.87-4.79,3.28-7.28s.16-4.85-.77-7.06c-.93-2.21-2.45-4.11-4.56-5.7-2.11-1.59-4.36-2.53-6.74-2.81Z"/>
    <path d="M360.82,990.68l-10.49-8.51,3.33-4.11,15.58,12.64-25.18,31.03-5.09-4.13,21.85-26.92Z"/>
    <path d="M305.78,989.65l3.49-4.05,12.85,11.07,7.69-8.93-10.02-8.63,3.49-4.05,10.02,8.63,11.41-13.24,4.97,4.28-26.08,30.28-17.82-15.35Z"/>
    <path d="M316.35,946.27c.04,1.14-.35,2.14-1.16,3.01-.81.87-1.79,1.32-2.92,1.36s-2.14-.35-3.01-1.16c-.84-.79-1.28-1.75-1.32-2.88s.35-2.14,1.16-3.01c.81-.87,1.79-1.32,2.92-1.36,1.14-.04,2.13.33,2.97,1.12.87.81,1.32,1.79,1.36,2.92Z"/>
    <path d="M255.48,925c-.71,2.13-.79,4.21-.24,6.24s1.67,3.91,3.35,5.64c1.84,1.9,3.91,3.18,6.2,3.84,2.29.66,4.63.65,7.01-.03,2.38-.68,4.61-2.02,6.67-4.02,2.07-2,3.48-4.19,4.25-6.56s.86-4.72.27-7.03c-.59-2.31-1.8-4.42-3.64-6.32-2.48-2.56-5.21-3.94-8.19-4.15-2.98-.21-5.87.69-8.66,2.71l10.44,10.78-3.76,3.64-15.33-15.82,3.68-3.56c2.52-1.86,5.34-3.05,8.45-3.59,3.11-.53,6.22-.31,9.32.66,3.1.97,5.87,2.71,8.29,5.21,2.62,2.7,4.38,5.77,5.28,9.21.91,3.44.88,6.9-.08,10.37-.96,3.47-2.85,6.56-5.66,9.28-2.81,2.72-5.96,4.51-9.46,5.36-3.5.85-6.96.76-10.39-.26-3.43-1.03-6.43-2.88-9.02-5.55-2.96-3.06-4.84-6.5-5.65-10.34-.81-3.84-.35-7.62,1.36-11.37l5.48,5.66Z"/>
    <path d="M258.74,889.75c.74,3.5.52,6.96-.64,10.39-1.16,3.42-3.22,6.42-6.17,8.99-2.95,2.57-6.19,4.18-9.73,4.85-3.54.67-6.99.39-10.36-.82-3.37-1.21-6.27-3.22-8.71-6.02-2.47-2.83-4.07-6-4.8-9.5-.74-3.5-.52-6.95.63-10.35,1.16-3.4,3.21-6.38,6.16-8.95s6.19-4.2,9.73-4.89c3.54-.69,6.99-.43,10.36.78,3.37,1.21,6.28,3.23,8.75,6.07,2.44,2.8,4.03,5.96,4.77,9.46ZM243.67,879.88c-2.27-.77-4.63-.86-7.09-.27-2.46.59-4.8,1.85-7.03,3.79-2.23,1.94-3.79,4.08-4.7,6.42-.91,2.34-1.13,4.68-.67,7.02.46,2.34,1.56,4.51,3.3,6.5,1.74,2,3.73,3.38,5.99,4.16,2.26.78,4.61.88,7.05.3,2.45-.58,4.78-1.84,7.01-3.77,2.23-1.94,3.8-4.08,4.73-6.44.92-2.35,1.16-4.71.71-7.06-.45-2.35-1.54-4.53-3.28-6.52-1.74-2-3.74-3.38-6.01-4.15Z"/>
    <path d="M187.25,842.84c-.98,2.02-1.33,4.07-1.04,6.15.29,2.08,1.15,4.09,2.59,6.03,1.58,2.12,3.46,3.66,5.65,4.61,2.19.95,4.51,1.24,6.96.87s4.83-1.41,7.13-3.13,3.99-3.7,5.06-5.96c1.07-2.25,1.46-4.57,1.18-6.94-.28-2.37-1.22-4.62-2.8-6.74-2.13-2.86-4.66-4.58-7.58-5.18-2.93-.59-5.91-.07-8.94,1.57l8.97,12.04-4.2,3.13-13.16-17.66,4.1-3.06c2.74-1.52,5.69-2.34,8.85-2.47,3.16-.13,6.21.49,9.16,1.85s5.47,3.44,7.55,6.24c2.25,3.01,3.6,6.28,4.05,9.82.46,3.53-.02,6.96-1.42,10.27-1.4,3.32-3.67,6.14-6.81,8.48s-6.49,3.7-10.07,4.1c-3.58.4-7-.14-10.26-1.6-3.26-1.46-6.01-3.68-8.23-6.67-2.54-3.41-3.97-7.07-4.27-10.98s.63-7.61,2.81-11.09l4.71,6.32Z"/>
    <path d="M195.11,808.26c.25,3.57-.43,6.97-2.05,10.2-1.62,3.23-4.06,5.92-7.34,8.06s-6.71,3.3-10.3,3.47c-3.59.18-6.98-.57-10.15-2.23-3.17-1.66-5.77-4.05-7.81-7.16-2.06-3.14-3.21-6.5-3.46-10.07-.25-3.57.43-6.96,2.04-10.17,1.61-3.21,4.06-5.88,7.33-8.02s6.71-3.31,10.31-3.51c3.6-.2,6.99.53,10.16,2.19,3.17,1.66,5.78,4.06,7.84,7.21,2.04,3.11,3.18,6.45,3.43,10.02ZM181.53,796.43c-2.14-1.07-4.47-1.48-6.99-1.24-2.52.25-5.01,1.18-7.48,2.8-2.47,1.62-4.32,3.52-5.54,5.72-1.22,2.2-1.76,4.48-1.62,6.87.14,2.38.93,4.68,2.38,6.9,1.45,2.21,3.24,3.86,5.36,4.94,2.13,1.08,4.44,1.5,6.94,1.27,2.5-.24,4.99-1.17,7.46-2.78s4.32-3.53,5.56-5.73c1.24-2.21,1.79-4.5,1.67-6.9s-.91-4.7-2.35-6.91-3.24-3.86-5.39-4.93Z"/>
    <path d="M169.43,773.15l-6.8-11.67,4.57-2.66,10.1,17.34-34.53,20.12-3.3-5.66,29.96-17.46Z"/>
    <path d="M118.45,752.25l4.73-2.5,7.92,15,10.42-5.5-6.17-11.7,4.73-2.5,6.17,11.7,15.46-8.16,3.06,5.8-35.34,18.65-10.98-20.8Z"/>
    <path d="M144.46,715.74c-.4,1.07-1.14,1.84-2.22,2.33-1.08.49-2.16.54-3.22.14s-1.84-1.14-2.34-2.22c-.47-1.05-.51-2.1-.11-3.17.4-1.07,1.14-1.84,2.22-2.34,1.08-.49,2.16-.54,3.22-.14,1.07.4,1.84,1.12,2.31,2.17.49,1.08.54,2.16.14,3.22Z"/>
    <path d="M97.04,672.01c-1.52,1.66-2.44,3.52-2.76,5.6-.32,2.08-.07,4.25.75,6.52.91,2.48,2.27,4.5,4.1,6.03,1.83,1.54,3.96,2.48,6.42,2.83,2.45.35,5.03.03,7.73-.95,2.7-.98,4.89-2.4,6.56-4.26,1.67-1.85,2.71-3.96,3.12-6.31.41-2.35.16-4.77-.75-7.26-1.22-3.35-3.15-5.73-5.78-7.13-2.63-1.41-5.64-1.76-9.02-1.06l5.14,14.1-4.92,1.79-7.54-20.69,4.81-1.75c3.06-.67,6.12-.61,9.18.17,3.06.78,5.81,2.25,8.24,4.4s4.25,4.87,5.45,8.14c1.29,3.53,1.64,7.05,1.07,10.57-.57,3.51-2.01,6.66-4.3,9.43-2.29,2.78-5.28,4.83-8.95,6.17-3.67,1.34-7.28,1.69-10.82,1.04-3.54-.65-6.66-2.14-9.37-4.48-2.71-2.34-4.7-5.25-5.97-8.75-1.46-4-1.77-7.91-.95-11.74.83-3.83,2.79-7.11,5.88-9.82l2.7,7.4Z"/>
    <path d="M114.79,641.23c-.86,3.47-2.56,6.5-5.1,9.07-2.54,2.58-5.69,4.38-9.47,5.4-3.77,1.03-7.4,1.07-10.87.12s-6.46-2.69-8.96-5.25c-2.5-2.56-4.24-5.63-5.21-9.22-.99-3.62-1.04-7.17-.18-10.65.86-3.47,2.56-6.48,5.08-9.04,2.52-2.55,5.67-4.34,9.45-5.37,3.77-1.02,7.4-1.08,10.89-.16,3.49.92,6.48,2.66,8.98,5.22,2.5,2.56,4.25,5.65,5.23,9.27.97,3.59,1.03,7.12.17,10.59ZM105.53,625.78c-1.71-1.68-3.8-2.79-6.27-3.33-2.47-.54-5.13-.42-7.98.35s-5.19,2.02-7.03,3.73c-1.84,1.71-3.06,3.72-3.67,6.03-.6,2.31-.56,4.74.13,7.29.69,2.55,1.88,4.67,3.57,6.36,1.69,1.69,3.76,2.8,6.21,3.35,2.45.55,5.1.43,7.95-.34s5.2-2.02,7.06-3.73c1.86-1.72,3.1-3.73,3.72-6.05.62-2.31.59-4.75-.11-7.3s-1.89-4.67-3.6-6.35Z"/>
    <path d="M72.63,566.6c-1.83,1.31-3.11,2.94-3.86,4.91s-.95,4.14-.61,6.53c.37,2.62,1.29,4.87,2.76,6.75,1.47,1.88,3.37,3.25,5.7,4.1,2.33.85,4.92,1.07,7.76.67,2.85-.41,5.28-1.34,7.3-2.81,2.02-1.47,3.47-3.31,4.35-5.53.88-2.22,1.14-4.63.77-7.25-.5-3.53-1.9-6.25-4.18-8.17s-5.15-2.89-8.6-2.9l2.12,14.86-5.18.74-3.11-21.8,5.07-.72c3.13-.02,6.12.67,8.95,2.07,2.83,1.4,5.22,3.4,7.16,6.01,1.94,2.61,3.16,5.64,3.65,9.09.53,3.72.15,7.24-1.14,10.56-1.29,3.32-3.34,6.1-6.16,8.34s-6.16,3.64-10.03,4.19c-3.87.55-7.47.15-10.8-1.22-3.33-1.36-6.08-3.47-8.25-6.32-2.17-2.85-3.51-6.11-4.04-9.79-.6-4.21-.1-8.11,1.5-11.68s4.19-6.38,7.78-8.4l1.11,7.8Z"/>
    <path d="M96.57,540.27c-1.62,3.19-3.95,5.76-7,7.71-3.05,1.95-6.53,3-10.43,3.15-3.91.16-7.45-.61-10.62-2.31s-5.7-4.07-7.57-7.12c-1.87-3.05-2.88-6.43-3.03-10.15-.15-3.75.58-7.23,2.2-10.42,1.62-3.19,3.94-5.75,6.97-7.67,3.03-1.93,6.5-2.97,10.41-3.12,3.91-.16,7.46.6,10.65,2.28s5.73,4.04,7.59,7.09c1.87,3.05,2.88,6.45,3.03,10.21.15,3.72-.58,7.17-2.2,10.36ZM90.99,523.15c-1.29-2.02-3.08-3.57-5.37-4.65-2.29-1.08-4.91-1.56-7.86-1.44-2.95.12-5.51.81-7.69,2.06-2.17,1.26-3.81,2.95-4.92,5.06-1.1,2.12-1.6,4.5-1.5,7.14.11,2.64.8,4.97,2.07,7,1.27,2.02,3.04,3.57,5.31,4.65,2.27,1.08,4.88,1.56,7.83,1.44,2.95-.12,5.52-.81,7.71-2.07s3.85-2.95,4.98-5.06c1.12-2.12,1.63-4.5,1.52-7.14s-.8-4.97-2.09-6.99Z"/>
    <path d="M93.06,497.13l.6-13.5,5.29.23-.89,20.05-39.92-1.77.29-6.55,34.64,1.54Z"/>
    <path d="M62.3,451.19l5.31.6-1.91,16.85,11.71,1.33,1.49-13.14,5.31.6-1.49,13.14,17.37,1.97-.74,6.51-39.71-4.5,2.65-23.37Z"/>
    <path d="M104.82,436.09c-.95.62-2.01.81-3.17.57-1.16-.24-2.06-.84-2.68-1.79-.62-.95-.81-2.01-.57-3.17.24-1.12.83-2,1.78-2.62.95-.62,2.01-.81,3.17-.57,1.16.24,2.06.84,2.68,1.79.62.95.82,1.99.58,3.12-.24,1.16-.84,2.06-1.8,2.68Z"/>
    <path d="M93.91,372.43c-2.22.35-4.1,1.24-5.65,2.67-1.54,1.42-2.7,3.28-3.46,5.57-.84,2.51-1.02,4.93-.54,7.27.47,2.34,1.56,4.41,3.27,6.21,1.7,1.8,3.92,3.15,6.65,4.06,2.73.91,5.32,1.16,7.78.74,2.46-.41,4.58-1.41,6.36-3,1.78-1.59,3.09-3.64,3.93-6.15,1.13-3.38,1.1-6.44-.09-9.18-1.19-2.74-3.32-4.88-6.4-6.44l-4.74,14.24-4.96-1.65,6.96-20.89,4.86,1.62c2.81,1.38,5.17,3.33,7.08,5.84,1.91,2.52,3.15,5.37,3.72,8.57s.3,6.46-.8,9.76c-1.19,3.57-3.1,6.54-5.73,8.94-2.64,2.4-5.71,3.97-9.24,4.71s-7.14.5-10.85-.73c-3.71-1.24-6.75-3.21-9.12-5.92-2.37-2.71-3.89-5.82-4.56-9.34-.67-3.52-.41-7.04.76-10.56,1.34-4.04,3.53-7.3,6.56-9.78,3.03-2.49,6.6-3.83,10.71-4.04l-2.49,7.47Z"/>
    <path d="M127.24,359.74c-2.91,2.09-6.16,3.3-9.76,3.62-3.6.33-7.17-.34-10.71-2-3.54-1.66-6.33-3.97-8.37-6.94-2.04-2.96-3.19-6.23-3.44-9.8s.41-7.04,1.98-10.41c1.59-3.4,3.84-6.15,6.75-8.24,2.91-2.09,6.14-3.29,9.72-3.61,3.58-.31,7.13.36,10.68,2.02s6.34,3.97,8.41,6.92,3.22,6.22,3.48,9.79c.25,3.57-.42,7.05-2.01,10.46-1.58,3.37-3.82,6.1-6.72,8.18ZM130.16,341.96c-.21-2.39-1.09-4.58-2.63-6.59-1.53-2.01-3.64-3.64-6.31-4.89-2.67-1.25-5.26-1.82-7.77-1.7-2.51.12-4.74.86-6.7,2.23-1.95,1.37-3.49,3.25-4.61,5.65-1.12,2.39-1.58,4.78-1.38,7.16.2,2.38,1.06,4.57,2.57,6.57,1.52,2,3.61,3.63,6.29,4.88,2.67,1.25,5.27,1.82,7.8,1.72,2.53-.11,4.78-.84,6.75-2.21s3.52-3.24,4.64-5.64c1.12-2.4,1.58-4.79,1.36-7.17Z"/>
    <path d="M144.81,275.77c-2.23-.26-4.28.1-6.15,1.05-1.87.96-3.48,2.44-4.83,4.44-1.48,2.19-2.3,4.48-2.47,6.86-.17,2.38.32,4.67,1.48,6.86,1.16,2.19,2.93,4.09,5.31,5.7,2.38,1.61,4.82,2.54,7.3,2.8,2.48.26,4.79-.13,6.94-1.18s3.95-2.68,5.43-4.87c1.99-2.96,2.78-5.91,2.37-8.87-.41-2.96-1.89-5.6-4.44-7.92l-8.39,12.44-4.34-2.92,12.31-18.26,4.24,2.86c2.34,2.08,4.09,4.59,5.26,7.53,1.17,2.94,1.59,6.02,1.29,9.26s-1.44,6.3-3.39,9.19c-2.1,3.12-4.74,5.47-7.92,7.07-3.18,1.6-6.57,2.29-10.16,2.06-3.59-.23-7.01-1.43-10.25-3.62-3.24-2.18-5.64-4.9-7.2-8.14s-2.19-6.65-1.89-10.22c.3-3.56,1.49-6.89,3.57-9.97,2.38-3.53,5.36-6.08,8.95-7.67,3.59-1.58,7.39-1.92,11.4-1.02l-4.4,6.53Z"/>
    <path d="M180.29,272.47c-3.35,1.25-6.81,1.55-10.37.91-3.56-.64-6.83-2.23-9.8-4.76-2.98-2.54-5.06-5.5-6.24-8.9-1.18-3.4-1.42-6.85-.73-10.36.7-3.51,2.25-6.68,4.67-9.51,2.44-2.86,5.33-4.91,8.69-6.16,3.35-1.25,6.8-1.55,10.33-.91,3.53.64,6.79,2.23,9.76,4.77,2.98,2.54,5.07,5.5,6.28,8.9,1.21,3.4,1.46,6.85.77,10.36-.7,3.51-2.27,6.69-4.7,9.55-2.41,2.83-5.29,4.87-8.65,6.12ZM187.82,256.1c.42-2.36.16-4.71-.79-7.05s-2.55-4.47-4.79-6.39c-2.25-1.91-4.6-3.15-7.05-3.7-2.45-.55-4.8-.42-7.05.38-2.25.81-4.23,2.21-5.94,4.23-1.72,2.01-2.79,4.19-3.23,6.54-.44,2.35-.19,4.69.75,7.02.93,2.33,2.52,4.46,4.77,6.37,2.25,1.92,4.6,3.15,7.07,3.72,2.46.56,4.83.45,7.09-.34,2.26-.79,4.25-2.2,5.97-4.21,1.71-2.01,2.78-4.2,3.21-6.56Z"/>
    <path d="M207.03,238.41l9.61-9.5,3.72,3.76-14.27,14.11-28.1-28.41,4.66-4.61,24.38,24.65Z"/>
    <path d="M215.46,183.8l3.51,4.03-12.8,11.14,7.74,8.89,9.98-8.68,3.51,4.03-9.98,8.68,11.48,13.19-4.95,4.3-26.23-30.15,17.74-15.44Z"/>
    <path d="M257,201.19c-1.13-.17-2.04-.73-2.75-1.69-.71-.96-.97-2-.8-3.12s.73-2.04,1.69-2.75c.93-.68,1.95-.94,3.08-.77,1.12.17,2.04.73,2.75,1.69.71.96.97,2,.8,3.12s-.72,2.03-1.64,2.71c-.96.71-2,.97-3.12.8Z"/>
    <path d="M290.41,146c-1.92-1.17-3.93-1.71-6.03-1.62-2.1.09-4.18.75-6.25,2.01-2.26,1.37-3.97,3.1-5.12,5.19-1.15,2.09-1.66,4.37-1.53,6.85.13,2.47.95,4.94,2.44,7.4s3.31,4.33,5.45,5.6c2.14,1.28,4.41,1.89,6.79,1.83,2.39-.06,4.71-.77,6.97-2.14,3.05-1.85,5-4.2,5.87-7.06.87-2.86.63-5.87-.71-9.05l-12.83,7.78-2.71-4.47,18.83-11.42,2.65,4.38c1.25,2.87,1.79,5.89,1.62,9.04s-1.08,6.13-2.71,8.94c-1.64,2.81-3.95,5.12-6.93,6.93-3.21,1.95-6.6,2.98-10.16,3.1-3.56.12-6.92-.68-10.09-2.39s-5.76-4.24-7.79-7.58-3.07-6.81-3.12-10.41c-.05-3.6.8-6.95,2.57-10.07,1.77-3.11,4.24-5.63,7.42-7.56,3.64-2.21,7.42-3.28,11.33-3.21,3.92.07,7.51,1.35,10.78,3.85l-6.74,4.09Z"/>
    <path d="M324.08,157.47c-3.57-.17-6.87-1.25-9.89-3.24-3.02-1.99-5.4-4.73-7.14-8.24s-2.48-7.05-2.23-10.64c.25-3.59,1.39-6.86,3.41-9.81,2.02-2.95,4.7-5.25,8.03-6.91,3.36-1.67,6.83-2.42,10.41-2.25,3.57.17,6.86,1.25,9.85,3.23,2.99,1.98,5.36,4.72,7.1,8.22,1.74,3.5,2.5,7.05,2.27,10.65-.23,3.6-1.35,6.88-3.37,9.83-2.02,2.95-4.72,5.26-8.08,6.93-3.33,1.65-6.78,2.39-10.36,2.22ZM337.43,145.39c1.32-2,2-4.27,2.05-6.8.05-2.53-.58-5.11-1.89-7.76-1.31-2.64-2.99-4.7-5.02-6.17-2.04-1.47-4.25-2.28-6.63-2.42-2.38-.14-4.76.37-7.13,1.55-2.37,1.18-4.22,2.76-5.54,4.74s-2.02,4.23-2.08,6.74c-.06,2.51.57,5.09,1.88,7.73,1.31,2.64,2.99,4.71,5.04,6.2,2.04,1.49,4.26,2.31,6.65,2.48,2.39.16,4.77-.35,7.14-1.52s4.21-2.76,5.53-4.77Z"/>
    <path d="M388.43,101.07c-1.67-1.5-3.54-2.41-5.62-2.72-2.08-.31-4.25-.04-6.51.81-2.48.93-4.48,2.31-6,4.15-1.52,1.84-2.45,3.99-2.78,6.44s.01,5.03,1.02,7.72,2.44,4.87,4.31,6.52c1.87,1.66,3.98,2.68,6.33,3.06,2.36.39,4.77.12,7.25-.81,3.34-1.25,5.7-3.2,7.08-5.84,1.38-2.65,1.71-5.65.98-9.02l-14.06,5.26-1.83-4.9,20.62-7.72,1.79,4.79c.69,3.06.66,6.12-.09,9.18-.75,3.07-2.2,5.83-4.33,8.28-2.13,2.46-4.83,4.29-8.1,5.52-3.52,1.32-7.04,1.7-10.56,1.16-3.52-.54-6.68-1.95-9.47-4.22s-4.88-5.24-6.25-8.9c-1.37-3.66-1.75-7.27-1.13-10.81.62-3.55,2.08-6.68,4.4-9.41,2.31-2.73,5.21-4.74,8.7-6.05,3.98-1.49,7.9-1.84,11.73-1.05,3.84.79,7.13,2.72,9.87,5.79l-7.38,2.76Z"/>
    <path d="M419.42,118.41c-3.49-.79-6.55-2.42-9.19-4.9-2.63-2.48-4.5-5.59-5.62-9.34-1.11-3.75-1.23-7.37-.37-10.86.86-3.49,2.54-6.52,5.05-9.08,2.5-2.56,5.53-4.37,9.1-5.42,3.6-1.07,7.15-1.21,10.64-.42,3.49.79,6.54,2.41,9.15,4.88,2.61,2.46,4.47,5.57,5.58,9.32,1.11,3.75,1.25,7.38.41,10.88-.84,3.51-2.51,6.54-5.01,9.1-2.5,2.56-5.55,4.37-9.15,5.44-3.57,1.06-7.09,1.19-10.58.41ZM434.66,108.8c1.64-1.75,2.7-3.86,3.19-6.34.48-2.48.31-5.14-.53-7.97-.84-2.83-2.13-5.14-3.89-6.95-1.75-1.8-3.79-2.97-6.11-3.53-2.32-.55-4.75-.45-7.29.3-2.54.75-4.63,1.99-6.27,3.72-1.65,1.73-2.72,3.82-3.21,6.29-.49,2.46-.31,5.11.52,7.94.84,2.83,2.14,5.15,3.89,6.97,1.76,1.82,3.8,3.01,6.13,3.58,2.33.57,4.76.48,7.3-.27,2.54-.75,4.62-2,6.27-3.75Z"/>
    <path d="M460.43,103.9l13.14-3.16,1.24,5.14-19.51,4.7-9.35-38.85,6.37-1.53,8.11,33.71Z"/>
    <path d="M494.97,61.01l1.05,5.24-16.63,3.33,2.32,11.56,12.97-2.6,1.05,5.24-12.97,2.6,3.43,17.14-6.43,1.29-7.85-39.18,23.06-4.62Z"/>
    <path d="M522.68,96.16c-.92-.68-1.46-1.6-1.64-2.78-.18-1.17.07-2.22.75-3.14.68-.92,1.6-1.46,2.78-1.64,1.14-.17,2.16.08,3.08.76.92.68,1.46,1.6,1.64,2.78.18,1.18-.07,2.22-.75,3.14-.68.92-1.58,1.46-2.72,1.63-1.18.18-2.22-.07-3.14-.75Z"/>
    <path d="M577.27,61.91c-1.22-1.89-2.79-3.25-4.71-4.09s-4.09-1.15-6.5-.92c-2.63.25-4.93,1.06-6.88,2.43s-3.41,3.21-4.37,5.49c-.96,2.28-1.31,4.86-1.04,7.72.27,2.86,1.09,5.34,2.46,7.42,1.37,2.09,3.14,3.62,5.31,4.61,2.17.99,4.57,1.36,7.21,1.12,3.55-.33,6.34-1.59,8.37-3.79,2.03-2.19,3.13-5.01,3.31-8.45l-14.94,1.4-.49-5.21,21.93-2.05.48,5.1c-.13,3.13-.96,6.08-2.49,8.84-1.53,2.76-3.65,5.05-6.35,6.86-2.7,1.81-5.79,2.88-9.26,3.21-3.74.35-7.24-.2-10.49-1.65-3.25-1.45-5.93-3.63-8.03-6.55s-3.33-6.33-3.7-10.22c-.36-3.89.22-7.47,1.74-10.73,1.52-3.26,3.76-5.91,6.71-7.93,2.95-2.03,6.27-3.21,9.98-3.56,4.24-.4,8.1.29,11.6,2.06,3.5,1.77,6.17,4.5,8.01,8.17l-7.84.73Z"/>
    <path d="M602.76,86.53c-3.19-1.62-5.76-3.95-7.7-7-1.94-3.05-2.99-6.53-3.15-10.43-.16-3.91.61-7.45,2.31-10.62,1.7-3.17,4.07-5.7,7.12-7.56,3.05-1.87,6.44-2.87,10.15-3.02,3.75-.15,7.23.58,10.42,2.2,3.19,1.62,5.75,3.94,7.67,6.97s2.96,6.5,3.12,10.41c.16,3.91-.6,7.46-2.28,10.65-1.68,3.19-4.04,5.72-7.09,7.59-3.05,1.87-6.46,2.88-10.21,3.03-3.72.15-7.17-.59-10.36-2.21ZM619.89,80.96c2.02-1.29,3.57-3.08,4.65-5.36s1.56-4.91,1.44-7.86c-.12-2.95-.81-5.51-2.06-7.69-1.26-2.17-2.94-3.81-5.06-4.92-2.12-1.1-4.5-1.6-7.14-1.5-2.64.11-4.97.79-7,2.06-2.02,1.27-3.57,3.04-4.65,5.31-1.08,2.27-1.56,4.88-1.44,7.83.12,2.95.8,5.52,2.06,7.72,1.26,2.19,2.94,3.85,5.06,4.98s4.5,1.63,7.14,1.53c2.64-.11,4.97-.8,7-2.09Z"/>
    <path d="M683.93,59.85c-.98-2.02-2.38-3.56-4.19-4.63-1.81-1.07-3.92-1.63-6.34-1.7-2.64-.07-5.02.46-7.12,1.59-2.1,1.13-3.77,2.77-5,4.92-1.23,2.15-1.88,4.67-1.96,7.54s.43,5.43,1.54,7.66c1.11,2.24,2.68,3.98,4.72,5.22,2.04,1.25,4.38,1.9,7.02,1.98,3.56.1,6.48-.82,8.76-2.75,2.28-1.93,3.71-4.59,4.3-7.99l-15-.41.14-5.23,22.01.61-.14,5.12c-.51,3.09-1.69,5.92-3.54,8.47s-4.23,4.57-7.13,6.04c-2.9,1.47-6.09,2.16-9.58,2.07-3.76-.1-7.16-1.07-10.22-2.9-3.06-1.83-5.45-4.32-7.19-7.47s-2.55-6.69-2.44-10.59c.11-3.91,1.11-7.39,3.02-10.44,1.91-3.05,4.44-5.41,7.62-7.07,3.17-1.66,6.61-2.43,10.33-2.33,4.25.12,8.01,1.27,11.27,3.45,3.26,2.18,5.58,5.21,6.97,9.08l-7.87-.22Z"/>
    <path d="M706.3,87.31c-2.98-1.97-5.26-4.59-6.84-7.84-1.58-3.25-2.22-6.83-1.93-10.73.3-3.9,1.47-7.33,3.52-10.29,2.05-2.96,4.7-5.19,7.95-6.69,3.25-1.5,6.72-2.11,10.43-1.83,3.75.28,7.11,1.41,10.09,3.39,2.98,1.98,5.25,4.58,6.82,7.81,1.56,3.23,2.19,6.8,1.9,10.7-.29,3.9-1.46,7.34-3.49,10.32-2.03,2.98-4.67,5.22-7.92,6.72-3.25,1.5-6.74,2.11-10.49,1.83-3.71-.28-7.05-1.41-10.04-3.38ZM723.96,83.75c2.16-1.05,3.9-2.64,5.24-4.79,1.33-2.15,2.12-4.69,2.34-7.64.22-2.94-.16-5.57-1.16-7.87-1-2.3-2.48-4.13-4.46-5.47-1.97-1.34-4.28-2.11-6.92-2.31-2.64-.2-5.03.21-7.19,1.24-2.15,1.03-3.9,2.61-5.23,4.74-1.33,2.13-2.11,4.67-2.33,7.61-.22,2.94.16,5.58,1.16,7.9,1,2.32,2.48,4.17,4.45,5.53s4.28,2.14,6.92,2.34c2.64.2,5.03-.22,7.19-1.27Z"/>
    <path d="M749.86,88.11l13.43,1.52-.59,5.26-19.94-2.25,4.48-39.71,6.51.74-3.89,34.45Z"/>
    <path d="M796.73,59.27l-.75,5.29-16.79-2.37-1.65,11.67,13.09,1.85-.75,5.29-13.09-1.85-2.45,17.31-6.49-.92,5.59-39.57,23.29,3.29Z"/>
    <path d="M811.32,101.45c-.65-.93-.87-1.99-.66-3.16.21-1.17.78-2.08,1.71-2.73.93-.65,1.99-.87,3.16-.66,1.13.2,2.02.77,2.67,1.71.65.93.87,1.99.66,3.16-.21,1.17-.78,2.08-1.71,2.73-.93.65-1.97.88-3.1.67-1.17-.21-2.08-.78-2.73-1.71Z"/>
  </g>
</svg>