<?xml version="1.0" encoding="utf-8"?>
<!-- Generator: Adobe Illustrator 28.0.0, SVG Export Plug-In . SVG Version: 6.00 Build 0)  -->
<svg version="1.1" id="Layer_1" xmlns="http://www.w3.org/2000/svg" xmlns:xlink="http://www.w3.org/1999/xlink" x="0px" y="0px"
	 viewBox="0 0 1652.1 1303.9" style="enable-background:new 0 0 1652.1 1303.9;" xml:space="preserve">
<style type="text/css">
	.st0{fill:#D6FFA1;}
</style>
<path class="st0" d="M1010,1279.4c-30.8,0-62.1-1.5-93.8-4.5c-103.9-9.8-208-35.5-309.5-76.2c-101.5-40.7-194.5-94.1-276.3-158.8
	c-79.6-62.9-145.6-133.8-196.1-210.8c-51.3-78.3-84.1-159-97.4-240c-14.1-85.7-5.8-167.8,24.7-243.8S142.7,204.2,212.2,152
	c65.6-49.3,145.1-85,236.3-106.2C538.2,25,634.9,19.3,735.9,28.9c103.9,9.8,208,35.5,309.5,76.2s194.4,94.1,276.3,158.8
	c79.7,62.9,145.6,133.8,196.1,210.8c51.3,78.3,84.1,159,97.4,240c14.1,85.7,5.8,167.8-24.7,243.8l-44.1-17.7l44.1,17.7
	c-30.5,76-81.2,141.1-150.7,193.3c-65.6,49.3-145.1,85-236.3,106.2C1142.1,1272.3,1077.2,1279.4,1010,1279.4L1010,1279.4z
	 M643.1,119.3c-59.9,0-118,6.3-173.1,19.1c-158.6,36.8-272.3,122.8-320.2,242.3s-25.2,260.2,64.1,396.4
	c92.7,141.5,244.8,259.9,428.3,333.5c183.5,73.6,375.3,93.1,540,54.9c158.6-36.8,272.3-122.8,320.2-242.3s25.2-260.2-64.1-396.4
	c-92.7-141.5-244.8-259.9-428.3-333.5C887.9,144.3,762.2,119.3,643.1,119.3L643.1,119.3z"/>
<g>
	<path d="M895.2,91.2c-0.5-2.2-1.6-4-3.1-5.4s-3.5-2.4-5.8-3c-2.6-0.6-5-0.6-7.3,0.1s-4.3,1.9-5.9,3.8c-1.7,1.8-2.8,4.2-3.5,6.9
		s-0.7,5.4-0.1,7.8s1.8,4.4,3.5,6.1s3.9,2.8,6.5,3.4c3.5,0.8,6.5,0.6,9.1-0.8c2.6-1.4,4.6-3.7,5.9-6.9l-14.6-3.6l1.2-5.1l21.4,5.2
		l-1.2,5c-1.2,2.9-2.9,5.4-5.2,7.5c-2.3,2.1-5.1,3.6-8.2,4.4c-3.1,0.8-6.4,0.8-9.8,0c-3.7-0.9-6.8-2.6-9.4-5s-4.4-5.4-5.5-8.8
		S862,95.8,863,92s2.7-7,5.2-9.6c2.5-2.6,5.5-4.3,8.9-5.3c3.5-0.9,7-1,10.6-0.1c4.1,1,7.6,2.9,10.3,5.8c2.7,2.8,4.3,6.3,4.9,10.3
		L895.2,91.2L895.2,91.2z"/>
	<path d="M911.3,122.7c-2.5-2.6-4.2-5.6-5.1-9.1s-0.8-7.1,0.3-10.9s2.9-6.9,5.5-9.3c2.6-2.5,5.7-4.1,9.2-4.9c3.5-0.8,7-0.7,10.6,0.3
		c3.6,1.1,6.7,2.8,9.2,5.4s4.2,5.6,5.1,9s0.8,7.1-0.3,10.9s-2.9,6.9-5.5,9.4c-2.6,2.5-5.7,4.2-9.1,5c-3.5,0.8-7,0.7-10.6-0.4
		C916.9,127.1,913.9,125.3,911.3,122.7L911.3,122.7z M929.3,122.9c2.3-0.6,4.4-1.8,6.1-3.6s3-4.2,3.9-7c0.8-2.8,1-5.5,0.5-7.9
		s-1.6-4.6-3.2-6.3c-1.7-1.7-3.8-2.9-6.3-3.7s-5-0.8-7.3-0.3s-4.3,1.8-6.1,3.6c-1.7,1.8-3,4.1-3.8,7c-0.8,2.8-1,5.5-0.5,8
		s1.6,4.6,3.2,6.3s3.8,3,6.3,3.7S927,123.4,929.3,122.9L929.3,122.9z"/>
	<path d="M996.7,122.5c-0.3-2.2-1.2-4.1-2.6-5.7s-3.2-2.8-5.5-3.6c-2.5-0.9-4.9-1.1-7.3-0.7c-2.3,0.4-4.4,1.5-6.3,3.2
		c-1.8,1.7-3.2,3.9-4.2,6.6c-1,2.7-1.2,5.3-0.9,7.8s1.3,4.6,2.9,6.4s3.6,3.1,6.1,4c3.4,1.2,6.4,1.2,9.2,0.1s4.9-3.2,6.5-6.3l-14.2-5
		l1.7-4.9l20.8,7.3l-1.7,4.8c-1.4,2.8-3.4,5.1-6,7c-2.5,1.9-5.4,3.1-8.6,3.6s-6.5,0.2-9.8-0.9c-3.5-1.2-6.5-3.2-8.8-5.9
		c-2.3-2.7-3.9-5.8-4.6-9.3c-0.7-3.5-0.4-7.1,0.9-10.8s3.3-6.7,6.1-9s5.9-3.8,9.4-4.4c3.5-0.6,7-0.3,10.5,0.9c4,1.4,7.2,3.7,9.7,6.7
		s3.7,6.7,3.9,10.8L996.7,122.5L996.7,122.5z"/>
	<path d="M1009.8,155.5c-2.3-2.8-3.7-5.9-4.3-9.5s-0.1-7.2,1.3-10.8c1.4-3.6,3.5-6.6,6.3-8.8c2.8-2.2,6-3.6,9.5-4.1
		c3.5-0.5,7-0.1,10.5,1.3c3.5,1.4,6.4,3.4,8.7,6.2c2.3,2.8,3.7,5.9,4.3,9.4c0.6,3.6,0.1,7.1-1.3,10.8c-1.4,3.6-3.5,6.6-6.3,8.9
		c-2.8,2.3-6,3.6-9.5,4.1c-3.5,0.5-7.1,0.1-10.6-1.3C1014.9,160.3,1012,158.3,1009.8,155.5L1009.8,155.5z M1027.7,157.2
		c2.4-0.4,4.5-1.4,6.4-3.1c1.9-1.7,3.4-3.9,4.4-6.6c1.1-2.8,1.5-5.4,1.2-7.9c-0.3-2.5-1.2-4.7-2.7-6.5s-3.5-3.3-5.9-4.2
		c-2.5-1-4.9-1.2-7.2-0.9c-2.4,0.4-4.5,1.4-6.4,3c-1.9,1.6-3.4,3.9-4.4,6.6c-1.1,2.8-1.5,5.4-1.2,7.9c0.3,2.5,1.2,4.7,2.7,6.6
		c1.5,1.9,3.5,3.3,5.9,4.2C1022.9,157.3,1025.3,157.6,1027.7,157.2L1027.7,157.2z"/>
	<path d="M1051.2,169.1l12.4,5.4l-2.1,4.9l-18.4-8l15.9-36.7l6,2.6L1051.2,169.1L1051.2,169.1z"/>
	<path d="M1104.4,155.1l-2.2,4.9l-15.4-7.1l-5,10.7l12,5.6l-2.2,4.9l-12-5.6l-7.4,15.9l-5.9-2.8l16.8-36.2L1104.4,155.1
		L1104.4,155.1z"/>
	<path d="M1106.1,199.7c-0.3-1.1-0.3-2.1,0.3-3.2c0.5-1.1,1.3-1.8,2.4-2.1c1.1-0.4,2.2-0.3,3.2,0.3c1,0.5,1.7,1.3,2.1,2.4
		c0.4,1.1,0.3,2.1-0.3,3.2c-0.5,1.1-1.3,1.8-2.4,2.1s-2.1,0.3-3.2-0.2C1107.2,201.6,1106.5,200.8,1106.1,199.7L1106.1,199.7z"/>
	<path d="M1170.5,202.8c0.1-2.2-0.4-4.3-1.6-6c-1.1-1.8-2.7-3.3-4.8-4.4c-2.3-1.3-4.7-1.9-7-1.9c-2.4,0-4.6,0.7-6.7,2.1
		s-3.8,3.3-5.2,5.8c-1.4,2.5-2.1,5-2.2,7.5c-0.1,2.5,0.5,4.8,1.8,6.8c1.2,2.1,3,3.7,5.3,5c3.1,1.7,6.1,2.3,9,1.6s5.4-2.4,7.5-5.1
		l-13.1-7.3l2.6-4.6l19.2,10.7l-2.5,4.5c-1.9,2.5-4.2,4.5-7.1,5.9c-2.8,1.4-5.9,2.1-9.1,2.1s-6.4-0.9-9.4-2.6
		c-3.3-1.8-5.8-4.3-7.7-7.3c-1.9-3-2.8-6.4-2.9-9.9c-0.1-3.6,0.8-7.1,2.8-10.5c1.9-3.4,4.4-6,7.5-7.9c3.1-1.8,6.4-2.7,10-2.7
		s7,0.9,10.2,2.7c3.7,2.1,6.5,4.8,8.4,8.3c1.9,3.4,2.5,7.2,2,11.3L1170.5,202.8L1170.5,202.8z"/>
	<path d="M1177.7,237.5c-1.8-3.1-2.6-6.5-2.5-10.1s1.2-7.1,3.2-10.4c2.1-3.3,4.7-5.8,7.8-7.5s6.6-2.5,10.1-2.3
		c3.6,0.1,6.9,1.2,10.1,3.2c3.2,2,5.7,4.5,7.4,7.6c1.7,3.1,2.6,6.5,2.5,10.1s-1.2,7.1-3.2,10.4c-2.1,3.3-4.7,5.9-7.8,7.6
		c-3.2,1.7-6.6,2.5-10.1,2.3c-3.6-0.1-7-1.2-10.2-3.2C1181.9,243.1,1179.4,240.6,1177.7,237.5L1177.7,237.5z M1195,242.4
		c2.4,0.1,4.7-0.6,6.8-1.9s4-3.2,5.6-5.7c1.6-2.5,2.4-5,2.6-7.5s-0.3-4.8-1.4-6.9c-1.1-2.1-2.8-3.8-5.1-5.2c-2.2-1.4-4.6-2.1-7-2.2
		s-4.7,0.5-6.8,1.8c-2.2,1.3-4,3.2-5.6,5.7c-1.6,2.5-2.4,5-2.6,7.6c-0.2,2.5,0.3,4.8,1.4,6.9s2.8,3.9,5.1,5.2
		C1190.3,241.6,1192.6,242.3,1195,242.4L1195,242.4z"/>
	<path d="M1260,260.2c0.3-2.2,0-4.3-0.9-6.2c-0.9-1.9-2.4-3.5-4.3-4.9c-2.2-1.5-4.4-2.4-6.8-2.6c-2.4-0.2-4.7,0.2-6.9,1.4
		s-4.1,2.9-5.8,5.2c-1.7,2.4-2.6,4.8-2.9,7.3c-0.3,2.5,0.1,4.8,1.1,7c1,2.2,2.6,4,4.8,5.5c2.9,2,5.9,2.9,8.8,2.5
		c3-0.4,5.6-1.8,8-4.3l-12.3-8.6l3-4.3l18,12.6l-2.9,4.2c-2.1,2.3-4.7,4-7.6,5.1c-3,1.1-6.1,1.5-9.3,1.1s-6.3-1.5-9.1-3.5
		c-3.1-2.2-5.4-4.8-6.9-8s-2.2-6.6-1.9-10.2c0.3-3.6,1.6-7,3.8-10.2c2.2-3.2,5-5.6,8.3-7.1s6.7-2.1,10.2-1.7
		c3.6,0.4,6.9,1.6,9.9,3.7c3.5,2.4,6,5.5,7.5,9.1c1.5,3.6,1.8,7.4,0.8,11.4L1260,260.2L1260,260.2z"/>
	<path d="M1263.6,295.4c-1.4-3.3-1.9-6.7-1.4-10.3c0.5-3.6,1.9-6.9,4.3-10c2.4-3.1,5.2-5.3,8.6-6.7c3.3-1.4,6.8-1.8,10.3-1.2
		c3.5,0.5,6.8,1.9,9.7,4.2c3,2.3,5.2,5.1,6.6,8.4c1.4,3.3,1.9,6.7,1.4,10.3s-1.9,6.9-4.3,10s-5.2,5.3-8.6,6.7s-6.8,1.8-10.3,1.3
		s-6.8-1.9-9.8-4.2C1267.2,301.5,1265,298.7,1263.6,295.4L1263.6,295.4z M1280.3,302.1c2.4,0.3,4.7-0.1,7-1.1
		c2.3-1.1,4.3-2.8,6.1-5.1s2.9-4.8,3.3-7.2c0.4-2.5,0.2-4.8-0.7-7c-0.9-2.2-2.4-4.1-4.5-5.7c-2.1-1.6-4.3-2.6-6.7-2.9s-4.7,0-7,1.1
		s-4.3,2.7-6.1,5.1c-1.8,2.3-2.9,4.8-3.4,7.2s-0.2,4.8,0.7,7.1s2.4,4.1,4.5,5.8S1277.9,301.8,1280.3,302.1L1280.3,302.1z"/>
	<path d="M1299.6,320l10.4,8.6l-3.4,4.1l-15.4-12.8l25.5-30.7l5,4.2L1299.6,320L1299.6,320z"/>
	<path d="M1354.6,321.6l-3.5,4l-12.7-11.2l-7.8,8.8l9.9,8.8l-3.5,4l-9.9-8.8l-11.6,13.1l-4.9-4.3l26.4-30L1354.6,321.6L1354.6,321.6
		z"/>
	<path d="M1343.5,364.9c0-1.1,0.4-2.1,1.2-3s1.8-1.3,2.9-1.3c1.1,0,2.1,0.4,3,1.2c0.8,0.8,1.3,1.8,1.3,2.9c0,1.1-0.4,2.1-1.2,3
		s-1.8,1.3-2.9,1.3c-1.1,0-2.1-0.4-2.9-1.1C1344,367,1343.6,366,1343.5,364.9L1343.5,364.9z"/>
	<path d="M1404.1,386.9c0.7-2.1,0.8-4.2,0.3-6.2c-0.5-2-1.6-3.9-3.3-5.7c-1.8-1.9-3.9-3.2-6.2-3.9s-4.6-0.7-7-0.1s-4.6,2-6.7,3.9
		s-3.5,4.1-4.3,6.5c-0.8,2.4-0.9,4.7-0.4,7s1.7,4.4,3.6,6.4c2.4,2.6,5.2,4,8.1,4.3c3,0.2,5.9-0.6,8.7-2.6l-10.3-10.9l3.8-3.6
		l15.1,16l-3.7,3.5c-2.6,1.8-5.4,3-8.5,3.5c-3.1,0.5-6.2,0.2-9.3-0.8c-3.1-1-5.8-2.8-8.2-5.3c-2.6-2.7-4.3-5.8-5.2-9.3
		s-0.8-6.9,0.2-10.4c1-3.5,2.9-6.5,5.8-9.2s6-4.4,9.5-5.2c3.5-0.8,7-0.7,10.4,0.4c3.4,1.1,6.4,3,8.9,5.7c2.9,3.1,4.8,6.6,5.5,10.4
		c0.8,3.8,0.3,7.6-1.5,11.4L1404.1,386.9L1404.1,386.9z"/>
	<path d="M1400.4,422.1c-0.7-3.5-0.4-7,0.8-10.4c1.2-3.4,3.3-6.4,6.3-8.9s6.2-4.1,9.8-4.7c3.6-0.6,7-0.3,10.3,1s6.2,3.3,8.6,6.1
		c2.4,2.9,4,6,4.7,9.6c0.7,3.5,0.4,7-0.8,10.3c-1.2,3.4-3.3,6.3-6.3,8.9s-6.2,4.1-9.8,4.8c-3.6,0.6-7,0.3-10.3-0.9s-6.2-3.3-8.7-6.2
		C1402.7,428.8,1401.1,425.7,1400.4,422.1L1400.4,422.1z M1415.4,432.2c2.3,0.8,4.6,0.9,7.1,0.4c2.5-0.6,4.8-1.8,7.1-3.7
		s3.8-4,4.8-6.4c0.9-2.3,1.2-4.7,0.8-7c-0.4-2.4-1.5-4.5-3.2-6.5s-3.7-3.4-5.9-4.2c-2.2-0.8-4.6-0.9-7-0.4c-2.4,0.5-4.8,1.8-7.1,3.7
		s-3.9,4-4.8,6.4c-1,2.3-1.2,4.7-0.8,7c0.4,2.4,1.5,4.5,3.2,6.6C1411.1,430,1413.1,431.4,1415.4,432.2L1415.4,432.2z"/>
	<path d="M1471.3,470c1-2,1.4-4,1.1-6.1c-0.2-2.1-1.1-4.1-2.5-6.1c-1.6-2.1-3.4-3.7-5.6-4.7s-4.5-1.3-6.9-1c-2.5,0.3-4.8,1.3-7.2,3
		c-2.3,1.7-4.1,3.6-5.2,5.9c-1.1,2.2-1.5,4.5-1.3,6.9c0.2,2.4,1.2,4.6,2.7,6.8c2.1,2.9,4.6,4.6,7.5,5.3s5.9,0.1,9-1.4l-8.8-12.2
		l4.2-3.1l12.9,17.9l-4.2,3c-2.8,1.5-5.7,2.3-8.9,2.3s-6.2-0.6-9.1-2c-2.9-1.4-5.4-3.5-7.5-6.4c-2.2-3-3.5-6.3-3.9-9.9
		s0.1-7,1.6-10.2s3.8-6.1,6.9-8.4s6.5-3.6,10.1-4s7,0.2,10.2,1.8s6,3.8,8.1,6.8c2.5,3.5,3.9,7.1,4.1,11s-0.7,7.6-3,11L1471.3,470
		L1471.3,470z"/>
	<path d="M1462.9,504.5c-0.2-3.6,0.5-7,2.2-10.2s4.2-5.9,7.5-8c3.3-2.1,6.8-3.2,10.3-3.3c3.6-0.1,7,0.7,10.1,2.4s5.7,4.1,7.7,7.3
		c2,3.2,3.1,6.5,3.3,10.1c0.2,3.6-0.5,7-2.2,10.1c-1.7,3.2-4.2,5.8-7.4,7.9c-3.3,2.1-6.8,3.2-10.4,3.3c-3.6,0.2-7-0.6-10.1-2.3
		s-5.7-4.2-7.7-7.3C1464.2,511.4,1463.1,508.1,1462.9,504.5L1462.9,504.5z M1476.3,516.5c2.1,1.1,4.4,1.5,7,1.3s5-1.1,7.5-2.7
		s4.4-3.5,5.6-5.6s1.8-4.5,1.7-6.8s-0.9-4.7-2.3-6.9c-1.4-2.2-3.2-3.9-5.3-5c-2.1-1.1-4.4-1.6-6.9-1.4s-5,1.1-7.5,2.7
		c-2.5,1.6-4.4,3.5-5.7,5.6s-1.9,4.5-1.8,6.9c0.1,2.4,0.8,4.7,2.2,7C1472.4,513.8,1474.1,515.4,1476.3,516.5L1476.3,516.5z"/>
	<path d="M1488,540l6.6,11.8l-4.6,2.6l-9.8-17.5l34.8-19.6l3.2,5.7L1488,540L1488,540z"/>
	<path d="M1538.6,561.8l-4.8,2.4l-7.7-15.1l-10.5,5.3l6,11.8l-4.8,2.4l-6-11.8l-15.6,7.9l-3-5.8l35.7-18L1538.6,561.8L1538.6,561.8z
		"/>
	<path d="M1512,597.8c0.4-1.1,1.2-1.8,2.3-2.3c1.1-0.5,2.2-0.5,3.2-0.1c1.1,0.4,1.8,1.2,2.3,2.3c0.5,1,0.5,2.1,0.1,3.2
		c-0.4,1.1-1.2,1.8-2.3,2.3s-2.2,0.5-3.2,0.1c-1.1-0.4-1.8-1.2-2.3-2.2C1511.6,599.9,1511.6,598.8,1512,597.8L1512,597.8z"/>
	<path d="M1558.6,642.4c1.6-1.6,2.5-3.5,2.9-5.5s0.2-4.2-0.6-6.5c-0.9-2.5-2.2-4.5-4-6.1c-1.8-1.6-3.9-2.6-6.4-3s-5-0.1-7.8,0.8
		s-4.9,2.3-6.6,4.1s-2.8,3.9-3.2,6.2c-0.4,2.3-0.2,4.8,0.6,7.3c1.2,3.4,3,5.8,5.6,7.2c2.6,1.5,5.6,1.9,9,1.2l-4.9-14.2l4.9-1.7
		l7.1,20.8l-4.8,1.7c-3.1,0.6-6.1,0.5-9.2-0.3s-5.8-2.4-8.2-4.6c-2.4-2.2-4.2-5-5.3-8.2c-1.2-3.5-1.5-7.1-0.9-10.6s2.1-6.6,4.5-9.3
		s5.4-4.7,9.1-6s7.3-1.5,10.8-0.8c3.5,0.7,6.6,2.3,9.3,4.7c2.7,2.4,4.6,5.3,5.8,8.9c1.4,4,1.6,8,0.7,11.8c-0.9,3.8-2.9,7-6.1,9.7
		L1558.6,642.4L1558.6,642.4z"/>
	<path d="M1540.2,672.9c0.9-3.5,2.7-6.4,5.3-9c2.6-2.5,5.8-4.2,9.6-5.2c3.8-0.9,7.4-0.9,10.9,0.1c3.4,1,6.4,2.8,8.8,5.4
		s4.1,5.7,5,9.3c0.9,3.7,0.9,7.2-0.1,10.7c-0.9,3.5-2.7,6.4-5.3,8.9c-2.6,2.5-5.8,4.2-9.6,5.2c-3.8,0.9-7.4,0.9-10.9-0.1
		s-6.4-2.8-8.9-5.4s-4.1-5.7-5-9.4C1539.2,679.8,1539.3,676.3,1540.2,672.9L1540.2,672.9z M1549.1,688.5c1.7,1.7,3.7,2.9,6.2,3.5
		c2.5,0.6,5.1,0.5,8-0.2s5.2-1.9,7.1-3.6c1.9-1.7,3.1-3.7,3.8-6c0.7-2.3,0.7-4.7,0-7.3c-0.6-2.6-1.8-4.7-3.4-6.4
		c-1.7-1.7-3.7-2.9-6.1-3.5c-2.4-0.6-5.1-0.5-8,0.2s-5.2,1.9-7.1,3.6c-1.9,1.7-3.2,3.7-3.8,6c-0.7,2.3-0.7,4.7-0.1,7.3
		C1546.3,684.6,1547.4,686.8,1549.1,688.5L1549.1,688.5z"/>
	<path d="M1580.7,748.4c1.9-1.3,3.2-2.9,4-4.8c0.8-2,1.1-4.1,0.8-6.5c-0.3-2.6-1.2-4.9-2.6-6.8c-1.4-1.9-3.3-3.3-5.6-4.2
		s-4.9-1.2-7.7-0.8c-2.9,0.3-5.3,1.2-7.4,2.6c-2.1,1.4-3.6,3.2-4.5,5.4c-0.9,2.2-1.2,4.6-0.9,7.2c0.4,3.5,1.8,6.3,4,8.3
		c2.2,2,5.1,3,8.5,3.1l-1.8-14.9l5.2-0.6l2.6,21.9l-5.1,0.6c-3.1,0-6.1-0.8-8.9-2.3c-2.8-1.5-5.1-3.5-7-6.2c-1.9-2.7-3-5.7-3.4-9.2
		c-0.4-3.7,0-7.2,1.4-10.5c1.4-3.3,3.5-6,6.3-8.2c2.9-2.2,6.2-3.5,10.1-4s7.5,0,10.8,1.5c3.3,1.4,6,3.6,8.1,6.5s3.4,6.2,3.8,9.9
		c0.5,4.2-0.1,8.1-1.8,11.7c-1.7,3.5-4.3,6.3-8,8.2L1580.7,748.4L1580.7,748.4z"/>
	<path d="M1556.1,774.2c1.7-3.2,4.1-5.7,7.2-7.5c3.1-1.9,6.6-2.8,10.5-2.9s7.4,0.8,10.6,2.6c3.1,1.8,5.6,4.2,7.4,7.3
		s2.7,6.5,2.8,10.2c0.1,3.8-0.8,7.2-2.5,10.4c-1.7,3.2-4.1,5.7-7.2,7.5c-3.1,1.8-6.6,2.8-10.5,2.9s-7.4-0.8-10.6-2.5
		s-5.6-4.2-7.4-7.3c-1.8-3.1-2.7-6.5-2.8-10.3C1553.6,780.8,1554.4,777.3,1556.1,774.2L1556.1,774.2z M1561.2,791.4
		c1.2,2,3,3.7,5.2,4.8c2.3,1.1,4.9,1.7,7.8,1.6s5.5-0.7,7.7-1.9s3.9-2.8,5-4.9c1.2-2.1,1.7-4.5,1.7-7.1c0-2.7-0.7-5-1.9-7
		c-1.2-2-2.9-3.7-5.2-4.8c-2.2-1.1-4.8-1.7-7.8-1.6c-2.9,0-5.5,0.7-7.8,1.9s-3.9,2.8-5.1,4.9c-1.2,2.1-1.8,4.5-1.7,7.1
		S1560,789.4,1561.2,791.4L1561.2,791.4z"/>
	<path d="M1558.5,817.4l-1,13.5l-5.3-0.4l1.4-20l39.9,2.8l-0.5,6.5L1558.5,817.4L1558.5,817.4z"/>
	<path d="M1588,864.1l-5.3-0.8l2.4-16.8l-11.7-1.7l-1.8,13.1l-5.3-0.8l1.8-13.1l-17.3-2.4l0.9-6.5l39.6,5.6L1588,864.1L1588,864.1z"
		/>
	<path d="M1545.1,878.1c1-0.6,2-0.8,3.2-0.5s2,0.9,2.6,1.9s0.8,2,0.5,3.2c-0.3,1.1-0.9,2-1.9,2.6c-1,0.6-2,0.8-3.2,0.5
		c-1.2-0.3-2-0.9-2.6-1.9s-0.8-2-0.5-3.1C1543.5,879.5,1544.1,878.7,1545.1,878.1z"/>
	<path d="M1554.2,942c2.2-0.3,4.1-1.1,5.7-2.5c1.6-1.4,2.8-3.2,3.6-5.5c0.9-2.5,1.2-4.9,0.8-7.2s-1.4-4.5-3.1-6.3s-3.8-3.3-6.5-4.2
		s-5.3-1.3-7.8-1c-2.5,0.3-4.6,1.3-6.4,2.8s-3.2,3.5-4.1,6c-1.2,3.3-1.3,6.4-0.2,9.2c1.1,2.8,3.2,5,6.2,6.6l5.1-14.1l4.9,1.8
		l-7.5,20.7l-4.8-1.8c-2.8-1.5-5.1-3.5-6.9-6c-1.8-2.6-3-5.5-3.5-8.7c-0.5-3.2-0.1-6.5,1.1-9.7c1.3-3.5,3.3-6.5,6-8.8
		s5.8-3.8,9.4-4.5s7.2-0.3,10.8,1c3.7,1.3,6.7,3.4,8.9,6.2c2.3,2.8,3.7,5.9,4.3,9.5c0.6,3.5,0.2,7-1.1,10.5c-1.5,4-3.7,7.2-6.8,9.6
		c-3.1,2.4-6.7,3.7-10.8,3.7L1554.2,942L1554.2,942z"/>
	<path d="M1520.5,953.8c3-2,6.2-3.1,9.9-3.3c3.6-0.2,7.2,0.5,10.7,2.3s6.2,4.2,8.2,7.2c2,3,3,6.3,3.2,9.9s-0.6,7-2.3,10.3
		c-1.7,3.4-4,6-7,8c-3,2-6.2,3.1-9.8,3.3c-3.6,0.2-7.1-0.6-10.6-2.3s-6.2-4.1-8.2-7.2c-2-3-3.1-6.3-3.2-9.9c-0.2-3.6,0.6-7,2.3-10.4
		C1515.2,958.4,1517.5,955.7,1520.5,953.8L1520.5,953.8z M1517.1,971.4c0.2,2.4,1,4.6,2.4,6.7c1.5,2,3.5,3.7,6.2,5.1s5.2,2,7.7,1.9
		s4.8-0.7,6.8-2c2-1.3,3.6-3.2,4.8-5.5c1.2-2.4,1.7-4.7,1.6-7.1s-0.9-4.6-2.4-6.6c-1.5-2-3.5-3.7-6.2-5.1s-5.2-2-7.8-1.9
		s-4.8,0.7-6.8,2s-3.6,3.1-4.8,5.5C1517.4,966.6,1516.9,969,1517.1,971.4L1517.1,971.4z"/>
	<path d="M1500.6,1037.2c2.2,0.3,4.3,0,6.2-0.9c1.9-0.9,3.6-2.3,4.9-4.3c1.5-2.2,2.4-4.4,2.7-6.8c0.2-2.4-0.2-4.7-1.3-6.9
		c-1.1-2.2-2.8-4.2-5.2-5.8c-2.3-1.7-4.8-2.7-7.2-3s-4.8,0-7,1s-4,2.6-5.6,4.7c-2.1,2.9-2.9,5.8-2.6,8.8c0.3,3,1.7,5.7,4.2,8
		l8.7-12.2l4.3,3l-12.8,17.9l-4.2-3c-2.3-2.2-4-4.7-5.1-7.7c-1.1-3-1.4-6.1-1-9.3c0.4-3.2,1.6-6.3,3.6-9.1c2.2-3.1,4.9-5.3,8.1-6.8
		c3.2-1.5,6.6-2.1,10.2-1.8c3.6,0.3,7,1.6,10.2,3.9c3.2,2.3,5.5,5,7,8.3c1.5,3.3,2,6.7,1.6,10.3c-0.4,3.6-1.7,6.8-3.8,9.9
		c-2.5,3.5-5.5,5.9-9.2,7.4c-3.6,1.5-7.4,1.7-11.4,0.7L1500.6,1037.2L1500.6,1037.2z"/>
	<path d="M1465,1039.6c3.4-1.2,6.8-1.4,10.4-0.6s6.8,2.4,9.7,5c2.9,2.6,4.9,5.6,6,9.1s1.2,6.9,0.4,10.4s-2.4,6.6-4.9,9.4
		c-2.5,2.8-5.5,4.8-8.8,5.9s-6.8,1.4-10.3,0.6c-3.5-0.7-6.7-2.4-9.6-5s-4.9-5.6-6-9.1s-1.3-6.9-0.5-10.4s2.4-6.6,4.9-9.4
		C1458.7,1042.7,1461.6,1040.7,1465,1039.6L1465,1039.6z M1457.1,1055.7c-0.5,2.3-0.3,4.7,0.6,7.1c0.9,2.4,2.4,4.5,4.6,6.5
		s4.5,3.3,6.9,3.9c2.4,0.6,4.8,0.6,7.1-0.2c2.3-0.8,4.3-2.1,6.1-4.1c1.8-2,2.9-4.1,3.4-6.4s0.3-4.7-0.6-7c-0.9-2.4-2.4-4.5-4.6-6.5
		c-2.2-2-4.5-3.3-7-3.9c-2.4-0.6-4.8-0.6-7.1,0.2c-2.3,0.7-4.3,2.1-6.1,4.1C1458.7,1051.2,1457.5,1053.4,1457.1,1055.7
		L1457.1,1055.7z"/>
	<path d="M1437.4,1072.9l-9.8,9.3l-3.6-3.8l14.6-13.8l27.4,29.1l-4.8,4.5L1437.4,1072.9L1437.4,1072.9z"/>
	<path d="M1427.7,1127.2l-3.4-4.1l13.1-10.8l-7.5-9.1l-10.2,8.4l-3.4-4.1l10.2-8.4l-11.2-13.5l5.1-4.2l25.5,30.8L1427.7,1127.2
		L1427.7,1127.2z"/>
	<path d="M1386.6,1108.9c1.1,0.2,2,0.8,2.7,1.8c0.7,1,0.9,2,0.7,3.1c-0.2,1.1-0.8,2-1.8,2.7c-0.9,0.7-2,0.9-3.1,0.7
		c-1.1-0.2-2-0.8-2.7-1.8c-0.7-1-0.9-2-0.7-3.1c0.2-1.1,0.8-2,1.7-2.7C1384.4,1109,1385.4,1108.7,1386.6,1108.9L1386.6,1108.9z"/>
	<path d="M1352,1163.3c1.9,1.2,3.9,1.8,6,1.8s4.2-0.7,6.3-1.9c2.3-1.3,4-3,5.2-5.1s1.8-4.3,1.7-6.8c-0.1-2.5-0.8-5-2.3-7.4
		c-1.4-2.5-3.2-4.4-5.3-5.7c-2.1-1.3-4.4-2-6.8-2s-4.7,0.7-7,2c-3.1,1.8-5.1,4.1-6,6.9c-0.9,2.8-0.8,5.9,0.5,9.1l13-7.5l2.6,4.5
		l-19.1,11l-2.6-4.4c-1.2-2.9-1.7-5.9-1.4-9.1c0.2-3.2,1.2-6.1,2.9-8.9c1.7-2.8,4.1-5,7.1-6.8c3.2-1.9,6.7-2.8,10.2-2.9
		c3.6,0,6.9,0.8,10,2.6s5.7,4.4,7.6,7.7s2.9,6.9,2.9,10.5c0,3.6-0.9,6.9-2.8,10c-1.8,3.1-4.4,5.5-7.6,7.4c-3.7,2.1-7.5,3.1-11.4,3
		s-7.5-1.5-10.7-4.1L1352,1163.3L1352,1163.3z"/>
	<path d="M1318.5,1151.2c3.6,0.2,6.8,1.4,9.8,3.4c3,2.1,5.3,4.8,7,8.4c1.7,3.5,2.3,7.1,2,10.7c-0.3,3.6-1.5,6.8-3.6,9.8
		c-2.1,2.9-4.8,5.2-8.2,6.8c-3.4,1.6-6.9,2.3-10.4,2c-3.6-0.2-6.8-1.4-9.8-3.4c-3-2-5.3-4.8-6.9-8.4c-1.7-3.5-2.4-7.1-2.1-10.7
		c0.3-3.6,1.5-6.8,3.6-9.8c2.1-2.9,4.8-5.2,8.2-6.8C1311.5,1151.6,1315,1151,1318.5,1151.2L1318.5,1151.2z M1304.9,1163
		c-1.4,2-2.1,4.2-2.2,6.8c-0.1,2.5,0.5,5.1,1.7,7.8s2.9,4.8,4.9,6.3s4.2,2.4,6.6,2.6c2.4,0.2,4.8-0.3,7.2-1.4s4.3-2.7,5.6-4.6
		s2.1-4.2,2.2-6.7s-0.5-5.1-1.7-7.8s-2.9-4.8-4.9-6.3c-2-1.5-4.2-2.4-6.6-2.6c-2.4-0.2-4.8,0.2-7.2,1.4S1306.3,1161,1304.9,1163
		L1304.9,1163z"/>
	<path d="M1253.1,1206.4c1.6,1.5,3.5,2.5,5.6,2.8c2.1,0.3,4.2,0.1,6.5-0.7c2.5-0.9,4.5-2.2,6.1-4c1.6-1.8,2.5-3.9,2.9-6.4
		c0.4-2.4,0.1-5-0.9-7.7s-2.4-4.9-4.2-6.6c-1.8-1.7-3.9-2.8-6.3-3.2c-2.3-0.4-4.8-0.2-7.3,0.7c-3.4,1.2-5.8,3.1-7.2,5.7
		s-1.8,5.6-1.1,9l14.1-5l1.8,4.9l-20.8,7.4l-1.7-4.8c-0.6-3.1-0.6-6.1,0.2-9.2s2.3-5.8,4.5-8.2c2.2-2.4,4.9-4.2,8.2-5.4
		c3.5-1.3,7.1-1.6,10.6-1s6.6,2.1,9.4,4.4c2.8,2.3,4.8,5.3,6.1,9c1.3,3.7,1.6,7.3,0.9,10.8c-0.7,3.5-2.2,6.7-4.6,9.3
		c-2.4,2.7-5.3,4.7-8.8,5.9c-4,1.4-7.9,1.7-11.8,0.8s-7.1-2.8-9.8-6L1253.1,1206.4L1253.1,1206.4z"/>
	<path d="M1222.5,1188.6c3.5,0.8,6.5,2.5,9.1,5c2.6,2.5,4.4,5.7,5.5,9.4c1.1,3.8,1.1,7.4,0.2,10.9c-0.9,3.5-2.7,6.5-5.2,9
		c-2.5,2.5-5.6,4.3-9.2,5.3c-3.6,1-7.2,1.1-10.6,0.2c-3.5-0.8-6.5-2.5-9.1-5c-2.6-2.5-4.4-5.6-5.4-9.4s-1.1-7.4-0.2-10.9
		s2.6-6.5,5.2-9s5.6-4.3,9.2-5.3C1215.5,1187.8,1219,1187.7,1222.5,1188.6L1222.5,1188.6z M1207.1,1197.9c-1.7,1.7-2.8,3.8-3.3,6.3
		c-0.5,2.5-0.4,5.1,0.4,8c0.8,2.8,2.1,5.2,3.8,7s3.7,3,6.1,3.6c2.3,0.6,4.7,0.5,7.3-0.2c2.6-0.7,4.7-1.9,6.3-3.6s2.8-3.8,3.3-6.2
		c0.5-2.5,0.4-5.1-0.4-7.9s-2.1-5.2-3.8-7c-1.7-1.8-3.8-3.1-6.1-3.7s-4.8-0.6-7.3,0.2C1210.8,1195,1208.7,1196.2,1207.1,1197.9
		L1207.1,1197.9z"/>
	<path d="M1181.2,1202.4l-13.2,3l-1.2-5.2l19.6-4.4l8.8,39l-6.4,1.4L1181.2,1202.4L1181.2,1202.4z"/>
	<path d="M1146.1,1244.8l-1-5.3l16.7-3.1l-2.2-11.6l-13,2.4l-1-5.3l13-2.4l-3.2-17.2l6.4-1.2l7.3,39.3L1146.1,1244.8L1146.1,1244.8z
		"/>
	<path d="M1118.9,1209.2c0.9,0.7,1.4,1.6,1.6,2.8s-0.1,2.2-0.8,3.1c-0.7,0.9-1.6,1.4-2.8,1.6c-1.1,0.2-2.2-0.1-3.1-0.8
		c-0.9-0.7-1.4-1.6-1.6-2.8s0.1-2.2,0.8-3.1c0.7-0.9,1.6-1.4,2.7-1.6C1116.9,1208.3,1118,1208.6,1118.9,1209.2L1118.9,1209.2z"/>
	<path d="M1063.8,1242.8c1.2,1.9,2.7,3.3,4.7,4.2s4.1,1.2,6.5,1c2.6-0.2,4.9-1,6.9-2.3c2-1.3,3.4-3.2,4.4-5.4s1.4-4.8,1.1-7.7
		s-1-5.3-2.4-7.4c-1.3-2.1-3.1-3.7-5.2-4.7c-2.2-1-4.6-1.4-7.2-1.2c-3.6,0.3-6.4,1.5-8.4,3.7s-3.2,5-3.4,8.4l15-1.2l0.4,5.2
		l-21.9,1.8l-0.4-5.1c0.2-3.1,1-6.1,2.6-8.8s3.7-5,6.4-6.8c2.7-1.8,5.8-2.8,9.3-3.1c3.8-0.3,7.2,0.3,10.5,1.8s5.9,3.7,7.9,6.7
		c2.1,2.9,3.2,6.4,3.6,10.3s-0.3,7.5-1.9,10.7s-3.8,5.8-6.8,7.8c-3,2-6.3,3.1-10,3.4c-4.2,0.3-8.1-0.4-11.6-2.2
		c-3.5-1.8-6.1-4.6-7.9-8.3L1063.8,1242.8L1063.8,1242.8z"/>
	<path d="M1038.7,1217.8c3.2,1.7,5.7,4,7.6,7.1c1.9,3.1,2.9,6.6,3,10.5c0.1,3.9-0.7,7.4-2.4,10.6c-1.7,3.2-4.1,5.6-7.2,7.5
		s-6.5,2.8-10.2,2.9c-3.8,0.1-7.2-0.7-10.4-2.3c-3.2-1.7-5.7-4-7.6-7.1s-2.9-6.5-3-10.4c-0.1-3.9,0.7-7.4,2.4-10.6
		c1.7-3.2,4.1-5.7,7.2-7.5s6.5-2.8,10.2-2.9C1032.1,1215.4,1035.5,1216.2,1038.7,1217.8z M1021.5,1223.2c-2,1.3-3.6,3-4.7,5.3
		c-1.1,2.3-1.6,4.9-1.5,7.8c0.1,2.9,0.7,5.5,2,7.7s2.9,3.8,5,5c2.1,1.1,4.5,1.7,7.1,1.6c2.6-0.1,5-0.7,7-2c2-1.2,3.6-3,4.7-5.2
		s1.6-4.9,1.5-7.8c-0.1-2.9-0.7-5.5-2-7.7s-2.9-3.9-5-5s-4.5-1.7-7.1-1.6S1023.5,1221.9,1021.5,1223.2L1021.5,1223.2z"/>
	<path d="M957.2,1243.5c1,2,2.3,3.6,4.1,4.7c1.8,1.1,3.9,1.7,6.3,1.8c2.6,0.1,5-0.4,7.1-1.5s3.8-2.7,5-4.9c1.2-2.1,1.9-4.6,2-7.5
		c0.1-2.9-0.4-5.4-1.5-7.7s-2.6-4-4.7-5.3s-4.3-2-7-2.1c-3.6-0.1-6.5,0.7-8.8,2.7c-2.3,1.9-3.8,4.6-4.4,7.9l15,0.6l-0.2,5.2l-22-0.9
		l0.2-5.1c0.5-3.1,1.8-5.9,3.6-8.4c1.9-2.5,4.3-4.5,7.2-6s6.1-2.1,9.6-1.9c3.8,0.2,7.2,1.2,10.2,3c3,1.9,5.4,4.4,7.1,7.6
		c1.7,3.2,2.5,6.7,2.3,10.6c-0.2,3.9-1.2,7.4-3.1,10.4s-4.5,5.4-7.7,7s-6.6,2.4-10.4,2.2c-4.2-0.2-8-1.4-11.2-3.6s-5.5-5.3-6.9-9.2
		L957.2,1243.5L957.2,1243.5z"/>
	<path d="M935.1,1215.8c3,2,5.2,4.7,6.8,7.9s2.1,6.8,1.8,10.8s-1.5,7.3-3.6,10.2c-2.1,2.9-4.8,5.1-8,6.6s-6.8,2-10.5,1.7
		c-3.7-0.3-7.1-1.5-10-3.5c-3-2-5.2-4.6-6.7-7.9c-1.5-3.2-2.1-6.8-1.8-10.7c0.3-3.9,1.5-7.3,3.6-10.3c2.1-3,4.7-5.2,8-6.6
		c3.3-1.5,6.8-2,10.5-1.7C928.8,1212.6,932.2,1213.8,935.1,1215.8L935.1,1215.8z M917.4,1219.2c-2.2,1-3.9,2.6-5.3,4.7
		s-2.2,4.7-2.4,7.6s0.1,5.6,1.1,7.9c1,2.3,2.4,4.2,4.4,5.5s4.3,2.2,6.9,2.4s5-0.2,7.2-1.2c2.2-1,3.9-2.6,5.3-4.7
		c1.4-2.1,2.2-4.6,2.4-7.6s-0.1-5.6-1.1-7.9c-1-2.3-2.4-4.2-4.4-5.6s-4.2-2.2-6.9-2.4C922,1217.7,919.6,1218.1,917.4,1219.2
		L917.4,1219.2z"/>
	<path d="M891.6,1214.5l-13.4-1.7l0.7-5.2l19.9,2.5l-4.9,39.7l-6.5-0.8L891.6,1214.5L891.6,1214.5z"/>
	<path d="M844.4,1242.8l0.8-5.3l16.8,2.6l1.8-11.7l-13.1-2l0.8-5.3l13.1,2l2.6-17.3l6.5,1l-6,39.5L844.4,1242.8L844.4,1242.8z"/>
	<path d="M830.2,1200.5c0.6,0.9,0.8,2,0.6,3.2s-0.8,2.1-1.7,2.7s-2,0.8-3.2,0.6c-1.1-0.2-2-0.8-2.7-1.7c-0.6-0.9-0.8-2-0.6-3.2
		c0.2-1.2,0.8-2.1,1.7-2.7s2-0.8,3.1-0.6C828.7,1199,829.6,1199.6,830.2,1200.5L830.2,1200.5z"/>
	<path d="M767.6,1215.3c0.5,2.2,1.6,4,3.2,5.4s3.5,2.4,5.9,2.9c2.6,0.6,5,0.6,7.3-0.1c2.3-0.7,4.2-2,5.9-3.8c1.6-1.9,2.8-4.2,3.4-7
		s0.7-5.4,0-7.8c-0.6-2.4-1.8-4.4-3.6-6.1s-3.9-2.8-6.5-3.3c-3.5-0.8-6.5-0.5-9.1,0.9s-4.6,3.8-5.8,7l14.6,3.4l-1.2,5.1l-21.4-5
		l1.2-5c1.1-2.9,2.8-5.5,5.2-7.6c2.3-2.1,5.1-3.6,8.2-4.5c3.1-0.9,6.4-0.9,9.8-0.1c3.7,0.9,6.8,2.5,9.4,4.9c2.6,2.4,4.5,5.3,5.5,8.8
		c1.1,3.4,1.2,7.1,0.3,10.9s-2.6,7-5.1,9.6s-5.4,4.4-8.9,5.4c-3.4,1-7,1.1-10.6,0.2c-4.1-1-7.6-2.8-10.3-5.6s-4.4-6.2-5-10.3
		L767.6,1215.3L767.6,1215.3z"/>
	<path d="M751.1,1184c2.5,2.5,4.3,5.5,5.2,9s0.8,7.1-0.2,10.9c-1,3.8-2.9,6.9-5.5,9.4s-5.6,4.2-9.1,5s-7,0.8-10.6-0.2
		c-3.6-1-6.7-2.8-9.2-5.3s-4.3-5.5-5.2-9c-0.9-3.5-0.8-7.1,0.2-10.9s2.9-6.9,5.4-9.4c2.6-2.5,5.6-4.2,9.1-5.1s7-0.8,10.6,0.3
		C745.5,1179.7,748.5,1181.5,751.1,1184L751.1,1184z M733.1,1184c-2.3,0.6-4.3,1.8-6.1,3.7c-1.7,1.8-3,4.2-3.8,7
		c-0.8,2.8-0.9,5.5-0.4,7.9c0.5,2.5,1.6,4.5,3.3,6.2c1.7,1.7,3.8,2.9,6.3,3.6c2.5,0.7,5,0.8,7.3,0.2s4.3-1.8,6.1-3.6
		c1.7-1.8,3-4.2,3.8-7c0.8-2.8,0.9-5.5,0.4-8c-0.5-2.5-1.6-4.6-3.3-6.3s-3.8-2.9-6.3-3.7C737.8,1183.5,735.4,1183.4,733.1,1184
		L733.1,1184z"/>
	<path d="M665.7,1185c0.3,2.2,1.2,4.1,2.6,5.7c1.4,1.6,3.3,2.7,5.5,3.5c2.5,0.8,4.9,1.1,7.3,0.6c2.3-0.5,4.4-1.5,6.2-3.2
		s3.2-3.9,4.1-6.6s1.2-5.3,0.8-7.8c-0.4-2.5-1.4-4.6-3-6.4s-3.6-3.1-6.1-4c-3.4-1.2-6.4-1.1-9.2,0c-2.8,1.2-4.9,3.3-6.5,6.4
		l14.2,4.8l-1.7,4.9l-20.8-7.1l1.7-4.8c1.4-2.8,3.4-5.2,5.9-7.1s5.4-3.1,8.6-3.7s6.5-0.3,9.8,0.9c3.6,1.2,6.5,3.1,8.9,5.8
		c2.4,2.7,3.9,5.7,4.7,9.3c0.7,3.5,0.5,7.1-0.8,10.8s-3.2,6.7-6,9.1s-5.8,3.8-9.4,4.5c-3.5,0.7-7,0.4-10.6-0.8
		c-4-1.4-7.3-3.6-9.8-6.6c-2.5-3.1-3.8-6.6-4-10.7L665.7,1185L665.7,1185z"/>
	<path d="M652.3,1152.2c2.3,2.8,3.7,5.9,4.3,9.5c0.6,3.6,0.2,7.2-1.2,10.8c-1.4,3.7-3.5,6.6-6.3,8.8c-2.8,2.2-6,3.6-9.5,4.1
		c-3.5,0.5-7,0.1-10.5-1.2c-3.5-1.3-6.4-3.4-8.7-6.2c-2.3-2.8-3.7-5.9-4.3-9.4c-0.6-3.5-0.1-7.1,1.3-10.8c1.4-3.7,3.5-6.6,6.3-8.9
		c2.8-2.3,6-3.7,9.5-4.2c3.5-0.5,7.1-0.1,10.6,1.3C647.2,1147.4,650.1,1149.5,652.3,1152.2L652.3,1152.2z M634.4,1150.6
		c-2.4,0.4-4.5,1.4-6.4,3.1c-1.9,1.7-3.4,3.9-4.4,6.6c-1.1,2.8-1.5,5.4-1.2,7.9c0.3,2.5,1.2,4.7,2.7,6.5s3.5,3.3,6,4.2
		s4.9,1.2,7.2,0.9c2.4-0.4,4.5-1.4,6.4-3c1.9-1.7,3.4-3.9,4.4-6.6s1.5-5.4,1.2-7.9s-1.2-4.7-2.7-6.6s-3.5-3.3-6-4.2
		C639.2,1150.5,636.8,1150.2,634.4,1150.6L634.4,1150.6z"/>
	<path d="M610.8,1139l-12.5-5.3l2.1-4.9l18.5,7.8l-15.6,36.8l-6-2.6L610.8,1139L610.8,1139z"/>
	<path d="M557.8,1153.5l2.2-4.9l15.5,7l4.9-10.7l-12-5.4l2.2-4.9l12,5.4l7.2-15.9l6,2.7l-16.5,36.4L557.8,1153.5L557.8,1153.5z"/>
	<path d="M555.5,1108.9c0.4,1.1,0.3,2.2-0.2,3.2s-1.3,1.8-2.4,2.2c-1.1,0.4-2.2,0.3-3.2-0.2c-1-0.5-1.7-1.3-2.1-2.4
		c-0.4-1.1-0.3-2.2,0.2-3.2c0.5-1.1,1.3-1.8,2.4-2.2c1.1-0.4,2.1-0.3,3.2,0.2C554.4,1107,555.2,1107.8,555.5,1108.9z"/>
	<path d="M491.1,1106.4c0,2.2,0.5,4.2,1.6,6c1.1,1.8,2.8,3.2,4.9,4.4c2.3,1.3,4.7,1.9,7.1,1.8c2.4-0.1,4.6-0.8,6.7-2.1
		s3.8-3.3,5.2-5.8c1.4-2.5,2.1-5,2.1-7.5c0-2.5-0.6-4.8-1.8-6.8c-1.2-2-3-3.7-5.4-4.9c-3.1-1.7-6.1-2.2-9-1.5
		c-2.9,0.7-5.4,2.4-7.5,5.2l13.2,7.2l-2.5,4.6l-19.3-10.6l2.5-4.5c1.9-2.5,4.2-4.5,7-5.9c2.8-1.4,5.9-2.2,9.1-2.2s6.4,0.8,9.5,2.5
		c3.3,1.8,5.9,4.2,7.8,7.2s2.9,6.3,3,9.9c0.1,3.6-0.8,7.1-2.6,10.6c-1.9,3.4-4.3,6.1-7.4,7.9c-3.1,1.8-6.4,2.8-10,2.8
		s-7-0.8-10.3-2.6c-3.7-2-6.6-4.8-8.5-8.2s-2.6-7.2-2.1-11.2L491.1,1106.4L491.1,1106.4z"/>
	<path d="M483.6,1071.9c1.8,3.1,2.6,6.5,2.6,10.1c0,3.6-1.1,7.1-3.1,10.4c-2,3.3-4.6,5.9-7.8,7.6c-3.2,1.7-6.5,2.5-10.1,2.4
		c-3.6-0.1-7-1.1-10.1-3.1c-3.2-1.9-5.7-4.5-7.5-7.6c-1.8-3.1-2.6-6.4-2.6-10c0.1-3.6,1.1-7.1,3.1-10.4c2-3.3,4.6-5.9,7.8-7.7
		s6.5-2.6,10.1-2.4s7,1.1,10.2,3.1C479.4,1066.3,481.9,1068.8,483.6,1071.9L483.6,1071.9z M466.2,1067.1c-2.4,0-4.7,0.6-6.8,1.9
		s-4,3.2-5.5,5.8s-2.4,5.1-2.5,7.6s0.4,4.8,1.5,6.9c1.2,2.1,2.9,3.8,5.1,5.2c2.3,1.4,4.6,2.1,7,2.1s4.6-0.6,6.8-1.9s4-3.2,5.5-5.8
		c1.5-2.5,2.4-5.1,2.5-7.6c0.1-2.5-0.3-4.8-1.5-6.9s-2.9-3.8-5.1-5.2C471,1067.8,468.7,1067.1,466.2,1067.1L466.2,1067.1z"/>
	<path d="M401,1050c-0.3,2.2,0.1,4.3,1,6.2c1,1.9,2.4,3.5,4.4,4.9c2.2,1.5,4.5,2.3,6.8,2.5c2.4,0.2,4.7-0.3,6.9-1.4
		c2.2-1.1,4.1-2.9,5.7-5.3c1.6-2.4,2.6-4.8,2.9-7.3s-0.1-4.8-1.1-6.9c-1-2.2-2.6-4-4.8-5.5c-2.9-2-5.9-2.8-8.9-2.4s-5.6,1.8-8,4.4
		l12.4,8.5l-3,4.3l-18.2-12.4l2.9-4.2c2.1-2.3,4.6-4.1,7.6-5.2s6-1.6,9.3-1.2c3.2,0.3,6.3,1.5,9.2,3.4c3.1,2.1,5.4,4.8,7,8
		s2.2,6.6,2,10.2c-0.2,3.6-1.5,7-3.7,10.2s-4.9,5.6-8.2,7.1s-6.7,2.1-10.2,1.8c-3.6-0.3-6.9-1.5-10-3.6c-3.5-2.4-6-5.4-7.6-9
		s-1.9-7.4-0.9-11.4L401,1050L401,1050z"/>
	<path d="M397.1,1014.8c1.5,3.3,2,6.7,1.5,10.3c-0.4,3.6-1.8,6.9-4.2,10.1s-5.2,5.4-8.5,6.8s-6.8,1.8-10.3,1.3
		c-3.5-0.5-6.8-1.8-9.8-4.1c-3-2.3-5.2-5-6.7-8.3c-1.5-3.3-2-6.7-1.5-10.2c0.4-3.6,1.8-6.9,4.2-10c2.4-3.1,5.2-5.4,8.5-6.8
		c3.3-1.4,6.8-1.9,10.3-1.4c3.5,0.5,6.8,1.9,9.8,4.1C393.4,1008.8,395.6,1011.6,397.1,1014.8L397.1,1014.8z M380.3,1008.3
		c-2.4-0.3-4.7,0.1-7,1.2s-4.3,2.8-6.1,5.2s-2.9,4.8-3.3,7.3c-0.4,2.5-0.1,4.8,0.8,7s2.5,4.1,4.6,5.7c2.1,1.6,4.4,2.5,6.7,2.8
		c2.4,0.3,4.7-0.1,7-1.2c2.3-1.1,4.3-2.8,6.1-5.2s2.9-4.8,3.3-7.3s0.2-4.8-0.8-7.1s-2.5-4.1-4.6-5.7S382.7,1008.6,380.3,1008.3
		L380.3,1008.3z"/>
	<path d="M360.8,990.7l-10.5-8.5l3.3-4.1l15.6,12.6l-25.2,31l-5.1-4.1L360.8,990.7L360.8,990.7z"/>
	<path d="M305.8,989.7l3.5-4l12.9,11.1l7.7-8.9l-10-8.6l3.5-4l10,8.6l11.4-13.2l5,4.3l-26.1,30.3L305.8,989.7L305.8,989.7z"/>
	<path d="M316.4,946.3c0,1.1-0.4,2.1-1.2,3s-1.8,1.3-2.9,1.4s-2.1-0.3-3-1.2c-0.8-0.8-1.3-1.8-1.3-2.9s0.4-2.1,1.2-3
		s1.8-1.3,2.9-1.4c1.1,0,2.1,0.3,3,1.1C315.9,944.2,316.3,945.1,316.4,946.3L316.4,946.3z"/>
	<path d="M255.5,925c-0.7,2.1-0.8,4.2-0.2,6.2s1.7,3.9,3.4,5.6c1.8,1.9,3.9,3.2,6.2,3.8c2.3,0.7,4.6,0.7,7,0c2.4-0.7,4.6-2,6.7-4
		c2.1-2,3.5-4.2,4.2-6.6s0.9-4.7,0.3-7c-0.6-2.3-1.8-4.4-3.6-6.3c-2.5-2.6-5.2-3.9-8.2-4.2s-5.9,0.7-8.7,2.7l10.4,10.8l-3.8,3.6
		l-15.3-15.8l3.7-3.6c2.5-1.9,5.3-3,8.5-3.6c3.1-0.5,6.2-0.3,9.3,0.7s5.9,2.7,8.3,5.2c2.6,2.7,4.4,5.8,5.3,9.2
		c0.9,3.4,0.9,6.9-0.1,10.4s-2.9,6.6-5.7,9.3c-2.8,2.7-6,4.5-9.5,5.4s-7,0.8-10.4-0.3c-3.4-1-6.4-2.9-9-5.5c-3-3.1-4.8-6.5-5.6-10.3
		s-0.4-7.6,1.4-11.4L255.5,925L255.5,925z"/>
	<path d="M258.7,889.8c0.7,3.5,0.5,7-0.6,10.4c-1.2,3.4-3.2,6.4-6.2,9s-6.2,4.2-9.7,4.8s-7,0.4-10.4-0.8s-6.3-3.2-8.7-6
		c-2.5-2.8-4.1-6-4.8-9.5c-0.7-3.5-0.5-7,0.6-10.3c1.2-3.4,3.2-6.4,6.2-9s6.2-4.2,9.7-4.9s7-0.4,10.4,0.8s6.3,3.2,8.8,6.1
		C256.4,883.1,258,886.3,258.7,889.8L258.7,889.8z M243.7,879.9c-2.3-0.8-4.6-0.9-7.1-0.3c-2.5,0.6-4.8,1.8-7,3.8s-3.8,4.1-4.7,6.4
		c-0.9,2.3-1.1,4.7-0.7,7s1.6,4.5,3.3,6.5c1.7,2,3.7,3.4,6,4.2c2.3,0.8,4.6,0.9,7.1,0.3c2.4-0.6,4.8-1.8,7-3.8
		c2.2-1.9,3.8-4.1,4.7-6.4c0.9-2.3,1.2-4.7,0.7-7.1s-1.5-4.5-3.3-6.5C248,882,246,880.6,243.7,879.9L243.7,879.9z"/>
	<path d="M187.2,842.8c-1,2-1.3,4.1-1,6.2c0.3,2.1,1.1,4.1,2.6,6c1.6,2.1,3.5,3.7,5.6,4.6c2.2,1,4.5,1.2,7,0.9s4.8-1.4,7.1-3.1
		s4-3.7,5.1-6c1.1-2.2,1.5-4.6,1.2-6.9c-0.3-2.4-1.2-4.6-2.8-6.7c-2.1-2.9-4.7-4.6-7.6-5.2c-2.9-0.6-5.9-0.1-8.9,1.6l9,12l-4.2,3.1
		l-13.2-17.7l4.1-3.1c2.7-1.5,5.7-2.3,8.9-2.5c3.2-0.1,6.2,0.5,9.2,1.8s5.5,3.4,7.6,6.2c2.2,3,3.6,6.3,4.1,9.8c0.5,3.5,0,7-1.4,10.3
		c-1.4,3.3-3.7,6.1-6.8,8.5s-6.5,3.7-10.1,4.1c-3.6,0.4-7-0.1-10.3-1.6c-3.3-1.5-6-3.7-8.2-6.7c-2.5-3.4-4-7.1-4.3-11
		s0.6-7.6,2.8-11.1L187.2,842.8L187.2,842.8z"/>
	<path d="M195.1,808.3c0.2,3.6-0.4,7-2.1,10.2c-1.6,3.2-4.1,5.9-7.3,8.1s-6.7,3.3-10.3,3.5c-3.6,0.2-7-0.6-10.1-2.2s-5.8-4-7.8-7.2
		c-2.1-3.1-3.2-6.5-3.5-10.1s0.4-7,2-10.2c1.6-3.2,4.1-5.9,7.3-8s6.7-3.3,10.3-3.5c3.6-0.2,7,0.5,10.2,2.2s5.8,4.1,7.8,7.2
		C193.7,801.3,194.9,804.7,195.1,808.3L195.1,808.3z M181.5,796.4c-2.1-1.1-4.5-1.5-7-1.2c-2.5,0.2-5,1.2-7.5,2.8s-4.3,3.5-5.5,5.7
		c-1.2,2.2-1.8,4.5-1.6,6.9c0.1,2.4,0.9,4.7,2.4,6.9c1.4,2.2,3.2,3.9,5.4,4.9c2.1,1.1,4.4,1.5,6.9,1.3c2.5-0.2,5-1.2,7.5-2.8
		s4.3-3.5,5.6-5.7c1.2-2.2,1.8-4.5,1.7-6.9s-0.9-4.7-2.4-6.9S183.7,797.5,181.5,796.4L181.5,796.4z"/>
	<path d="M169.4,773.2l-6.8-11.7l4.6-2.7l10.1,17.3l-34.5,20.1l-3.3-5.7L169.4,773.2L169.4,773.2z"/>
	<path d="M118.4,752.2l4.7-2.5l7.9,15l10.4-5.5l-6.2-11.7l4.7-2.5l6.2,11.7l15.5-8.2l3.1,5.8L129.4,773L118.4,752.2L118.4,752.2z"/>
	<path d="M144.5,715.7c-0.4,1.1-1.1,1.8-2.2,2.3s-2.2,0.5-3.2,0.1s-1.8-1.1-2.3-2.2c-0.5-1-0.5-2.1-0.1-3.2s1.1-1.8,2.2-2.3
		c1.1-0.5,2.2-0.5,3.2-0.1c1.1,0.4,1.8,1.1,2.3,2.2C144.8,713.6,144.9,714.7,144.5,715.7L144.5,715.7z"/>
	<path d="M97,672c-1.5,1.7-2.4,3.5-2.8,5.6c-0.3,2.1-0.1,4.2,0.8,6.5c0.9,2.5,2.3,4.5,4.1,6c1.8,1.5,4,2.5,6.4,2.8
		c2.4,0.3,5,0,7.7-1c2.7-1,4.9-2.4,6.6-4.3c1.7-1.8,2.7-4,3.1-6.3s0.2-4.8-0.8-7.3c-1.2-3.3-3.2-5.7-5.8-7.1c-2.6-1.4-5.6-1.8-9-1.1
		l5.1,14.1l-4.9,1.8l-7.5-20.7l4.8-1.8c3.1-0.7,6.1-0.6,9.2,0.2c3.1,0.8,5.8,2.2,8.2,4.4s4.2,4.9,5.4,8.1c1.3,3.5,1.6,7,1.1,10.6
		c-0.6,3.5-2,6.7-4.3,9.4c-2.3,2.8-5.3,4.8-8.9,6.2c-3.7,1.3-7.3,1.7-10.8,1s-6.7-2.1-9.4-4.5c-2.7-2.3-4.7-5.2-6-8.8
		c-1.5-4-1.8-7.9-0.9-11.7c0.8-3.8,2.8-7.1,5.9-9.8L97,672L97,672z"/>
	<path d="M114.8,641.2c-0.9,3.5-2.6,6.5-5.1,9.1c-2.5,2.6-5.7,4.4-9.5,5.4c-3.8,1-7.4,1.1-10.9,0.1s-6.5-2.7-9-5.2s-4.2-5.6-5.2-9.2
		c-1-3.6-1-7.2-0.2-10.7c0.9-3.5,2.6-6.5,5.1-9c2.5-2.5,5.7-4.3,9.4-5.4c3.8-1,7.4-1.1,10.9-0.2c3.5,0.9,6.5,2.7,9,5.2
		c2.5,2.6,4.2,5.7,5.2,9.3C115.6,634.2,115.7,637.7,114.8,641.2L114.8,641.2z M105.5,625.8c-1.7-1.7-3.8-2.8-6.3-3.3
		c-2.5-0.5-5.1-0.4-8,0.3s-5.2,2-7,3.7c-1.8,1.7-3.1,3.7-3.7,6c-0.6,2.3-0.6,4.7,0.1,7.3c0.7,2.5,1.9,4.7,3.6,6.4s3.8,2.8,6.2,3.3
		s5.1,0.4,7.9-0.3s5.2-2,7.1-3.7c1.9-1.7,3.1-3.7,3.7-6c0.6-2.3,0.6-4.8-0.1-7.3S107.2,627.5,105.5,625.8L105.5,625.8z"/>
	<path d="M72.6,566.6c-1.8,1.3-3.1,2.9-3.9,4.9s-0.9,4.1-0.6,6.5c0.4,2.6,1.3,4.9,2.8,6.8s3.4,3.2,5.7,4.1c2.3,0.8,4.9,1.1,7.8,0.7
		c2.8-0.4,5.3-1.3,7.3-2.8c2-1.5,3.5-3.3,4.3-5.5c0.9-2.2,1.1-4.6,0.8-7.2c-0.5-3.5-1.9-6.2-4.2-8.2s-5.2-2.9-8.6-2.9l2.1,14.9
		l-5.2,0.7l-3.1-21.8l5.1-0.7c3.1,0,6.1,0.7,8.9,2.1c2.8,1.4,5.2,3.4,7.2,6s3.2,5.6,3.7,9.1c0.5,3.7,0.2,7.2-1.1,10.6
		s-3.3,6.1-6.2,8.3s-6.2,3.6-10,4.2c-3.9,0.5-7.5,0.2-10.8-1.2c-3.3-1.4-6.1-3.5-8.2-6.3c-2.2-2.8-3.5-6.1-4-9.8
		c-0.6-4.2-0.1-8.1,1.5-11.7s4.2-6.4,7.8-8.4L72.6,566.6L72.6,566.6z"/>
	<path d="M96.6,540.3c-1.6,3.2-3.9,5.8-7,7.7s-6.5,3-10.4,3.2c-3.9,0.2-7.4-0.6-10.6-2.3s-5.7-4.1-7.6-7.1s-2.9-6.4-3-10.2
		c-0.2-3.8,0.6-7.2,2.2-10.4s3.9-5.8,7-7.7c3-1.9,6.5-3,10.4-3.1c3.9-0.2,7.5,0.6,10.7,2.3c3.2,1.7,5.7,4,7.6,7.1
		c1.9,3,2.9,6.5,3,10.2C98.9,533.6,98.2,537.1,96.6,540.3L96.6,540.3z M91,523.2c-1.3-2-3.1-3.6-5.4-4.7s-4.9-1.6-7.9-1.4
		s-5.5,0.8-7.7,2.1c-2.2,1.3-3.8,3-4.9,5.1c-1.1,2.1-1.6,4.5-1.5,7.1c0.1,2.6,0.8,5,2.1,7c1.3,2,3,3.6,5.3,4.7s4.9,1.6,7.8,1.4
		c2.9-0.1,5.5-0.8,7.7-2.1s3.8-3,5-5.1c1.1-2.1,1.6-4.5,1.5-7.1S92.3,525.2,91,523.2L91,523.2z"/>
	<path d="M93.1,497.1l0.6-13.5l5.3,0.2l-0.9,20l-39.9-1.8l0.3-6.5L93.1,497.1L93.1,497.1z"/>
	<path d="M62.3,451.2l5.3,0.6l-1.9,16.9l11.7,1.3l1.5-13.1l5.3,0.6l-1.5,13.1l17.4,2l-0.7,6.5l-39.7-4.5L62.3,451.2L62.3,451.2z"/>
	<path d="M104.8,436.1c-0.9,0.6-2,0.8-3.2,0.6c-1.2-0.2-2.1-0.8-2.7-1.8s-0.8-2-0.6-3.2c0.2-1.1,0.8-2,1.8-2.6s2-0.8,3.2-0.6
		c1.2,0.2,2.1,0.8,2.7,1.8s0.8,2,0.6,3.1C106.4,434.6,105.8,435.5,104.8,436.1L104.8,436.1z"/>
	<path d="M93.9,372.4c-2.2,0.4-4.1,1.2-5.7,2.7c-1.5,1.4-2.7,3.3-3.5,5.6c-0.8,2.5-1,4.9-0.5,7.3c0.5,2.3,1.6,4.4,3.3,6.2
		c1.7,1.8,3.9,3.1,6.7,4.1s5.3,1.2,7.8,0.7c2.5-0.4,4.6-1.4,6.4-3s3.1-3.6,3.9-6.1c1.1-3.4,1.1-6.4-0.1-9.2
		c-1.2-2.7-3.3-4.9-6.4-6.4l-4.7,14.2l-5-1.6l7-20.9l4.9,1.6c2.8,1.4,5.2,3.3,7.1,5.8c1.9,2.5,3.2,5.4,3.7,8.6s0.3,6.5-0.8,9.8
		c-1.2,3.6-3.1,6.5-5.7,8.9c-2.6,2.4-5.7,4-9.2,4.7s-7.1,0.5-10.8-0.7c-3.7-1.2-6.8-3.2-9.1-5.9c-2.4-2.7-3.9-5.8-4.6-9.3
		s-0.4-7,0.8-10.6c1.3-4,3.5-7.3,6.6-9.8c3-2.5,6.6-3.8,10.7-4L93.9,372.4L93.9,372.4z"/>
	<path d="M127.2,359.7c-2.9,2.1-6.2,3.3-9.8,3.6c-3.6,0.3-7.2-0.3-10.7-2s-6.3-4-8.4-6.9c-2-3-3.2-6.2-3.4-9.8s0.4-7,2-10.4
		c1.6-3.4,3.8-6.1,6.8-8.2s6.1-3.3,9.7-3.6c3.6-0.3,7.1,0.4,10.7,2s6.3,4,8.4,6.9s3.2,6.2,3.5,9.8c0.2,3.6-0.4,7-2,10.5
		C132.4,354.9,130.1,357.7,127.2,359.7L127.2,359.7z M130.2,342c-0.2-2.4-1.1-4.6-2.6-6.6c-1.5-2-3.6-3.6-6.3-4.9s-5.3-1.8-7.8-1.7
		c-2.5,0.1-4.7,0.9-6.7,2.2c-1.9,1.4-3.5,3.2-4.6,5.6c-1.1,2.4-1.6,4.8-1.4,7.2c0.2,2.4,1.1,4.6,2.6,6.6c1.5,2,3.6,3.6,6.3,4.9
		c2.7,1.2,5.3,1.8,7.8,1.7c2.5-0.1,4.8-0.8,6.8-2.2s3.5-3.2,4.6-5.6C129.9,346.7,130.4,344.3,130.2,342L130.2,342z"/>
	<path d="M144.8,275.8c-2.2-0.3-4.3,0.1-6.1,1c-1.9,1-3.5,2.4-4.8,4.4c-1.5,2.2-2.3,4.5-2.5,6.9c-0.2,2.4,0.3,4.7,1.5,6.9
		c1.2,2.2,2.9,4.1,5.3,5.7c2.4,1.6,4.8,2.5,7.3,2.8c2.5,0.3,4.8-0.1,6.9-1.2s3.9-2.7,5.4-4.9c2-3,2.8-5.9,2.4-8.9s-1.9-5.6-4.4-7.9
		l-8.4,12.4l-4.3-2.9l12.3-18.3l4.2,2.9c2.3,2.1,4.1,4.6,5.3,7.5s1.6,6,1.3,9.3s-1.4,6.3-3.4,9.2c-2.1,3.1-4.7,5.5-7.9,7.1
		s-6.6,2.3-10.2,2.1s-7-1.4-10.2-3.6c-3.2-2.2-5.6-4.9-7.2-8.1s-2.2-6.6-1.9-10.2c0.3-3.6,1.5-6.9,3.6-10c2.4-3.5,5.4-6.1,8.9-7.7
		c3.6-1.6,7.4-1.9,11.4-1L144.8,275.8L144.8,275.8z"/>
	<path d="M180.3,272.5c-3.4,1.2-6.8,1.5-10.4,0.9c-3.6-0.6-6.8-2.2-9.8-4.8c-3-2.5-5.1-5.5-6.2-8.9c-1.2-3.4-1.4-6.9-0.7-10.4
		c0.7-3.5,2.2-6.7,4.7-9.5c2.4-2.9,5.3-4.9,8.7-6.2c3.4-1.2,6.8-1.6,10.3-0.9s6.8,2.2,9.8,4.8c3,2.5,5.1,5.5,6.3,8.9
		c1.2,3.4,1.5,6.9,0.8,10.4c-0.7,3.5-2.3,6.7-4.7,9.5C186.5,269.2,183.7,271.2,180.3,272.5L180.3,272.5z M187.8,256.1
		c0.4-2.4,0.2-4.7-0.8-7.1s-2.6-4.5-4.8-6.4c-2.2-1.9-4.6-3.1-7.1-3.7s-4.8-0.4-7.1,0.4c-2.2,0.8-4.2,2.2-5.9,4.2
		c-1.7,2-2.8,4.2-3.2,6.5c-0.4,2.4-0.2,4.7,0.8,7c0.9,2.3,2.5,4.5,4.8,6.4c2.2,1.9,4.6,3.1,7.1,3.7c2.5,0.6,4.8,0.5,7.1-0.3
		s4.2-2.2,6-4.2C186.3,260.7,187.4,258.5,187.8,256.1L187.8,256.1z"/>
	<path d="M207,238.4l9.6-9.5l3.7,3.8l-14.3,14.1L178,218.4l4.7-4.6L207,238.4L207,238.4z"/>
	<path d="M215.5,183.8l3.5,4L206.2,199l7.7,8.9l10-8.7l3.5,4l-10,8.7l11.5,13.2l-4.9,4.3l-26.2-30.1L215.5,183.8L215.5,183.8z"/>
	<path d="M257,201.2c-1.1-0.2-2-0.7-2.8-1.7s-1-2-0.8-3.1s0.7-2,1.7-2.8c0.9-0.7,1.9-0.9,3.1-0.8c1.1,0.2,2,0.7,2.8,1.7s1,2,0.8,3.1
		s-0.7,2-1.6,2.7C259.2,201.1,258.1,201.4,257,201.2L257,201.2z"/>
	<path d="M290.4,146c-1.9-1.2-3.9-1.7-6-1.6c-2.1,0.1-4.2,0.8-6.2,2c-2.3,1.4-4,3.1-5.1,5.2s-1.7,4.4-1.5,6.9c0.1,2.5,1,4.9,2.4,7.4
		s3.3,4.3,5.5,5.6c2.1,1.3,4.4,1.9,6.8,1.8c2.4-0.1,4.7-0.8,7-2.1c3-1.9,5-4.2,5.9-7.1s0.6-5.9-0.7-9.1l-12.8,7.8l-2.7-4.5
		l18.8-11.4l2.6,4.4c1.2,2.9,1.8,5.9,1.6,9s-1.1,6.1-2.7,8.9c-1.6,2.8-4,5.1-6.9,6.9c-3.2,1.9-6.6,3-10.2,3.1
		c-3.6,0.1-6.9-0.7-10.1-2.4s-5.8-4.2-7.8-7.6s-3.1-6.8-3.1-10.4s0.8-6.9,2.6-10.1c1.8-3.1,4.2-5.6,7.4-7.6
		c3.6-2.2,7.4-3.3,11.3-3.2c3.9,0.1,7.5,1.4,10.8,3.9L290.4,146L290.4,146z"/>
	<path d="M324.1,157.5c-3.6-0.2-6.9-1.2-9.9-3.2c-3-2-5.4-4.7-7.1-8.2s-2.5-7.1-2.2-10.6s1.4-6.9,3.4-9.8s4.7-5.2,8-6.9
		c3.4-1.7,6.8-2.4,10.4-2.2c3.6,0.2,6.9,1.2,9.9,3.2c3,2,5.4,4.7,7.1,8.2c1.7,3.5,2.5,7,2.3,10.7s-1.4,6.9-3.4,9.8s-4.7,5.3-8.1,6.9
		C331.1,156.9,327.7,157.6,324.1,157.5L324.1,157.5z M337.4,145.4c1.3-2,2-4.3,2-6.8s-0.6-5.1-1.9-7.8c-1.3-2.6-3-4.7-5-6.2
		c-2-1.5-4.2-2.3-6.6-2.4s-4.8,0.4-7.1,1.6s-4.2,2.8-5.5,4.7c-1.3,2-2,4.2-2.1,6.7c-0.1,2.5,0.6,5.1,1.9,7.7s3,4.7,5,6.2
		c2,1.5,4.3,2.3,6.6,2.5c2.4,0.2,4.8-0.4,7.1-1.5S336.1,147.4,337.4,145.4z"/>
	<path d="M388.4,101.1c-1.7-1.5-3.5-2.4-5.6-2.7s-4.2,0-6.5,0.8c-2.5,0.9-4.5,2.3-6,4.2c-1.5,1.8-2.5,4-2.8,6.4s0,5,1,7.7
		s2.4,4.9,4.3,6.5c1.9,1.7,4,2.7,6.3,3.1c2.4,0.4,4.8,0.1,7.2-0.8c3.3-1.2,5.7-3.2,7.1-5.8c1.4-2.7,1.7-5.7,1-9l-14.1,5.3l-1.8-4.9
		l20.6-7.7l1.8,4.8c0.7,3.1,0.7,6.1-0.1,9.2c-0.8,3.1-2.2,5.8-4.3,8.3c-2.1,2.5-4.8,4.3-8.1,5.5c-3.5,1.3-7,1.7-10.6,1.2
		s-6.7-1.9-9.5-4.2s-4.9-5.2-6.2-8.9s-1.8-7.3-1.1-10.8c0.6-3.6,2.1-6.7,4.4-9.4c2.3-2.7,5.2-4.7,8.7-6.1c4-1.5,7.9-1.8,11.7-1.1
		c3.8,0.8,7.1,2.7,9.9,5.8L388.4,101.1L388.4,101.1z"/>
	<path d="M419.4,118.4c-3.5-0.8-6.5-2.4-9.2-4.9c-2.6-2.5-4.5-5.6-5.6-9.3c-1.1-3.8-1.2-7.4-0.4-10.9c0.9-3.5,2.5-6.5,5-9.1
		c2.5-2.6,5.5-4.4,9.1-5.4c3.6-1.1,7.1-1.2,10.6-0.4c3.5,0.8,6.5,2.4,9.1,4.9c2.6,2.5,4.5,5.6,5.6,9.3s1.2,7.4,0.4,10.9
		c-0.8,3.5-2.5,6.5-5,9.1s-5.5,4.4-9.1,5.4C426.4,119.1,422.9,119.2,419.4,118.4L419.4,118.4z M434.7,108.8c1.6-1.8,2.7-3.9,3.2-6.3
		c0.5-2.5,0.3-5.1-0.5-8s-2.1-5.1-3.9-6.9c-1.8-1.8-3.8-3-6.1-3.5c-2.3-0.6-4.8-0.4-7.3,0.3s-4.6,2-6.3,3.7
		c-1.6,1.7-2.7,3.8-3.2,6.3c-0.5,2.5-0.3,5.1,0.5,7.9c0.8,2.8,2.1,5.2,3.9,7c1.8,1.8,3.8,3,6.1,3.6c2.3,0.6,4.8,0.5,7.3-0.3
		C430.9,111.8,433,110.5,434.7,108.8L434.7,108.8z"/>
	<path d="M460.4,103.9l13.1-3.2l1.2,5.1l-19.5,4.7l-9.4-38.8l6.4-1.5L460.4,103.9L460.4,103.9z"/>
	<path d="M495,61l1,5.2l-16.6,3.3l2.3,11.6l13-2.6l1,5.2l-13,2.6l3.4,17.1l-6.4,1.3l-7.9-39.2L495,61L495,61z"/>
	<path d="M522.7,96.2c-0.9-0.7-1.5-1.6-1.6-2.8c-0.2-1.2,0.1-2.2,0.8-3.1s1.6-1.5,2.8-1.6c1.1-0.2,2.2,0.1,3.1,0.8
		c0.9,0.7,1.5,1.6,1.6,2.8s-0.1,2.2-0.8,3.1s-1.6,1.5-2.7,1.6C524.6,97.1,523.6,96.8,522.7,96.2L522.7,96.2z"/>
	<path d="M577.3,61.9c-1.2-1.9-2.8-3.2-4.7-4.1s-4.1-1.2-6.5-0.9c-2.6,0.2-4.9,1.1-6.9,2.4s-3.4,3.2-4.4,5.5s-1.3,4.9-1,7.7
		s1.1,5.3,2.5,7.4c1.4,2.1,3.1,3.6,5.3,4.6s4.6,1.4,7.2,1.1c3.5-0.3,6.3-1.6,8.4-3.8c2-2.2,3.1-5,3.3-8.4l-14.9,1.4l-0.5-5.2
		l21.9-2.1l0.5,5.1c-0.1,3.1-1,6.1-2.5,8.8c-1.5,2.8-3.7,5.1-6.3,6.9c-2.7,1.8-5.8,2.9-9.3,3.2c-3.7,0.3-7.2-0.2-10.5-1.7
		c-3.2-1.4-5.9-3.6-8-6.6s-3.3-6.3-3.7-10.2c-0.4-3.9,0.2-7.5,1.7-10.7s3.8-5.9,6.7-7.9c3-2,6.3-3.2,10-3.6
		c4.2-0.4,8.1,0.3,11.6,2.1s6.2,4.5,8,8.2L577.3,61.9L577.3,61.9z"/>
	<path d="M602.8,86.5c-3.2-1.6-5.8-3.9-7.7-7s-3-6.5-3.2-10.4c-0.2-3.9,0.6-7.5,2.3-10.6c1.7-3.2,4.1-5.7,7.1-7.6
		c3-1.9,6.4-2.9,10.2-3c3.8-0.2,7.2,0.6,10.4,2.2s5.8,3.9,7.7,7s3,6.5,3.1,10.4c0.2,3.9-0.6,7.5-2.3,10.7c-1.7,3.2-4,5.7-7.1,7.6
		c-3,1.9-6.5,2.9-10.2,3C609.4,88.9,605.9,88.2,602.8,86.5L602.8,86.5z M619.9,81c2-1.3,3.6-3.1,4.7-5.4s1.6-4.9,1.4-7.9
		c-0.1-2.9-0.8-5.5-2.1-7.7c-1.3-2.2-2.9-3.8-5.1-4.9c-2.1-1.1-4.5-1.6-7.1-1.5c-2.6,0.1-5,0.8-7,2.1c-2,1.3-3.6,3-4.7,5.3
		s-1.6,4.9-1.4,7.8c0.1,2.9,0.8,5.5,2.1,7.7c1.3,2.2,2.9,3.8,5.1,5s4.5,1.6,7.1,1.5C615.5,83,617.9,82.3,619.9,81L619.9,81z"/>
	<path d="M683.9,59.8c-1-2-2.4-3.6-4.2-4.6s-3.9-1.6-6.3-1.7c-2.6-0.1-5,0.5-7.1,1.6s-3.8,2.8-5,4.9s-1.9,4.7-2,7.5s0.4,5.4,1.5,7.7
		c1.1,2.2,2.7,4,4.7,5.2c2,1.2,4.4,1.9,7,2c3.6,0.1,6.5-0.8,8.8-2.8s3.7-4.6,4.3-8l-15-0.4l0.1-5.2l22,0.6l-0.1,5.1
		c-0.5,3.1-1.7,5.9-3.5,8.5s-4.2,4.6-7.1,6s-6.1,2.2-9.6,2.1c-3.8-0.1-7.2-1.1-10.2-2.9s-5.5-4.3-7.2-7.5s-2.5-6.7-2.4-10.6
		c0.1-3.9,1.1-7.4,3-10.4c1.9-3,4.4-5.4,7.6-7.1c3.2-1.7,6.6-2.4,10.3-2.3c4.2,0.1,8,1.3,11.3,3.5s5.6,5.2,7,9.1L683.9,59.8
		L683.9,59.8z"/>
	<path d="M706.3,87.3c-3-2-5.3-4.6-6.8-7.8s-2.2-6.8-1.9-10.7c0.3-3.9,1.5-7.3,3.5-10.3c2-3,4.7-5.2,8-6.7s6.7-2.1,10.4-1.8
		c3.8,0.3,7.1,1.4,10.1,3.4c3,2,5.2,4.6,6.8,7.8c1.6,3.2,2.2,6.8,1.9,10.7c-0.3,3.9-1.5,7.3-3.5,10.3c-2,3-4.7,5.2-7.9,6.7
		s-6.7,2.1-10.5,1.8C712.6,90.4,709.3,89.3,706.3,87.3L706.3,87.3z M724,83.8c2.2-1.1,3.9-2.6,5.2-4.8c1.3-2.2,2.1-4.7,2.3-7.6
		c0.2-2.9-0.2-5.6-1.2-7.9s-2.5-4.1-4.5-5.5c-2-1.3-4.3-2.1-6.9-2.3c-2.6-0.2-5,0.2-7.2,1.2c-2.2,1-3.9,2.6-5.2,4.7
		c-1.3,2.1-2.1,4.7-2.3,7.6c-0.2,2.9,0.2,5.6,1.2,7.9s2.5,4.2,4.5,5.5s4.3,2.1,6.9,2.3C719.4,85.2,721.8,84.8,724,83.8L724,83.8z"/>
	<path d="M749.9,88.1l13.4,1.5l-0.6,5.3l-19.9-2.2l4.5-39.7l6.5,0.7L749.9,88.1L749.9,88.1z"/>
	<path d="M796.7,59.3l-0.8,5.3l-16.8-2.4l-1.7,11.7l13.1,1.8l-0.8,5.3l-13.1-1.8l-2.5,17.3l-6.5-0.9l5.6-39.6L796.7,59.3L796.7,59.3
		z"/>
	<path d="M811.3,101.4c-0.7-0.9-0.9-2-0.7-3.2c0.2-1.2,0.8-2.1,1.7-2.7s2-0.9,3.2-0.7c1.1,0.2,2,0.8,2.7,1.7c0.7,0.9,0.9,2,0.7,3.2
		c-0.2,1.2-0.8,2.1-1.7,2.7s-2,0.9-3.1,0.7C812.9,103,812,102.4,811.3,101.4L811.3,101.4z"/>
</g>
</svg>
