<svg width="144" height="55" viewBox="0 0 144 55" fill="none" xmlns="http://www.w3.org/2000/svg">
<g id="logo">
<path id="Vector" d="M54.229 53.9672H44.215L41.5193 47.7996C41.467 47.7996 41.4285 47.8261 41.4036 47.8768C41.377 47.9291 41.3392 47.954 41.2878 47.954C36.6663 51.9634 31.351 53.9673 25.343 53.9673C20.7713 53.9673 16.5348 52.7719 12.6334 50.3826C8.73033 47.9926 5.64955 44.7161 3.39023 40.5531C1.12929 36.3892 0 31.8674 0 26.9836C0 22.1014 1.12929 17.5917 3.39023 13.4536C5.64955 9.31629 8.73033 6.0398 12.6334 3.62321C16.5348 1.2083 20.7713 0 25.343 0C30.6831 0 35.5113 1.60728 39.8242 4.81864C44.1379 8.03163 47.2195 12.2332 49.0681 17.4243H39.2085C37.7183 14.8549 35.754 12.7972 33.3162 11.2558C30.876 9.71371 28.2181 8.94304 25.343 8.94304C20.8236 8.94304 16.972 10.704 13.7891 14.2234C10.6039 17.7453 9.01325 21.9985 9.01325 26.9836C9.01325 31.9696 10.6039 36.2227 13.7891 39.743C16.972 43.2641 20.8236 45.0242 25.343 45.0242C30.1696 45.0242 34.2012 43.0461 37.4363 39.0882L37.5134 39.011C37.5641 38.9602 37.5906 38.908 37.5906 38.8565L32.4297 27.06H42.3665L54.229 53.9672Z" fill="#2F2A26"/>
<path id="Vector_2" d="M59.3135 18.8114C63.112 14.802 67.6829 12.7981 73.0239 12.7981C78.3648 12.7981 82.9349 14.802 86.7358 18.8114C90.5351 22.8207 92.436 27.6772 92.436 33.3824C92.436 39.0875 90.5351 43.9448 86.7358 47.9533C82.9349 51.9627 78.3648 53.9674 73.0239 53.9674C67.6829 53.9674 63.112 51.9627 59.3135 47.9533C55.5126 43.9448 53.6133 39.0875 53.6133 33.3824C53.6133 27.6772 55.5126 22.8207 59.3135 18.8114ZM65.668 41.5933C67.6958 43.8804 70.148 45.0235 73.0239 45.0235C75.8988 45.0235 78.3511 43.8804 80.3806 41.5933C82.4084 39.3071 83.4228 36.5704 83.4228 33.3824C83.4228 30.1967 82.4084 27.4592 80.3806 25.1721C78.3511 22.8851 75.8988 21.7412 73.0239 21.7412C70.148 21.7412 67.6958 22.8851 65.668 25.1721C63.6385 27.4592 62.6257 30.1967 62.6257 33.3824C62.6257 36.5704 63.6385 39.3071 65.668 41.5933Z" fill="#2F2A26"/>
<path id="Vector_3" d="M105.992 0.0769043H97.1339V54.0441H105.992V0.0769043Z" fill="#2F2A26"/>
<path id="Vector_4" d="M129.409 8.018C124.889 8.17247 122.63 10.3051 122.63 14.4166V15.8815H129.409V24.9026H122.63V54.0446H113.694V24.9026H111.152V15.8815H113.694V14.1858C113.694 9.61163 115.004 6.12919 117.623 3.73916C120.243 1.34914 124.067 0.154541 129.101 0.154541H129.409L129.409 8.018Z" fill="#2F2A26"/>
<path id="Vector_5" d="M142.349 16.3484H133.414V54.044H142.349V16.3484Z" fill="#2F2A26"/>
<path id="Vector_6" d="M143.728 6.08739C143.728 9.05503 141.324 11.4619 138.358 11.4619C135.393 11.4619 132.989 9.05503 132.989 6.08739C132.989 3.11975 135.393 0.712891 138.358 0.712891C141.324 0.712891 143.728 3.1198 143.728 6.08739Z" fill="#2F2A26"/>
</g>
</svg>
